<?xml version="1.0" standalone="no"?>
<!DOCTYPE svg PUBLIC "-//W3C//DTD SVG 20010904//EN"
 "http://www.w3.org/TR/2001/REC-SVG-20010904/DTD/svg10.dtd">
<svg version="1.0" xmlns="http://www.w3.org/2000/svg"
 width="1936.000000pt" height="2448.000000pt" viewBox="0 0 1936.000000 2448.000000"
 preserveAspectRatio="xMidYMid meet">
<metadata>
Created by potrace 1.16, written by Peter Selinger 2001-2019
</metadata>
<g transform="translate(0.000000,2448.000000) scale(0.100000,-0.100000)"
fill="#000000" stroke="none">
<path d="M8886 21135 c-3 -8 -12 -15 -20 -15 -8 0 -33 -17 -56 -38 -30 -30
-40 -47 -40 -71 0 -19 -6 -34 -15 -37 -12 -5 -15 -25 -15 -89 0 -64 3 -84 15
-89 8 -3 15 -16 15 -28 0 -27 93 -118 121 -118 10 0 21 -4 24 -10 3 -5 19 -10
34 -10 21 0 31 -8 44 -35 9 -20 17 -43 17 -53 0 -9 7 -26 15 -36 8 -11 15 -39
15 -62 0 -24 4 -45 9 -49 5 -3 13 -30 16 -60 4 -31 11 -58 16 -61 5 -3 9 -33
9 -67 1 -39 6 -69 15 -81 10 -13 15 -43 15 -84 0 -43 5 -68 15 -78 11 -11 15
-38 15 -95 0 -64 -3 -79 -15 -79 -8 0 -15 -4 -15 -10 0 -5 -10 -10 -23 -10
-13 0 -32 -7 -43 -15 -10 -8 -33 -15 -50 -15 -19 0 -34 -6 -38 -15 -3 -9 -18
-15 -40 -15 -19 0 -38 -4 -41 -10 -3 -5 -14 -10 -23 -10 -21 0 -127 -54 -149
-75 -8 -8 -18 -15 -23 -15 -12 0 -140 -130 -140 -142 0 -5 -11 -21 -25 -36
-14 -15 -25 -34 -25 -44 0 -9 -7 -23 -15 -32 -8 -8 -15 -26 -15 -40 0 -13 -6
-31 -14 -38 -7 -8 -16 -27 -19 -43 -23 -115 -31 -145 -39 -145 -4 0 -8 -29 -8
-65 0 -49 -4 -67 -15 -71 -13 -5 -15 -57 -15 -378 0 -284 -3 -375 -12 -384
-10 -10 -13 -130 -13 -529 0 -404 3 -517 13 -520 7 -3 12 -25 12 -60 0 -35 5
-60 15 -69 8 -9 15 -29 15 -45 0 -16 4 -29 10 -29 5 0 13 -12 16 -27 4 -16 18
-45 31 -65 12 -21 23 -42 23 -48 0 -5 4 -10 10 -10 5 0 16 -15 23 -32 8 -18
21 -39 30 -47 10 -7 17 -18 17 -23 0 -10 16 -31 43 -56 9 -9 17 -22 17 -29 0
-6 11 -24 25 -39 14 -15 25 -31 25 -35 0 -5 7 -9 15 -9 8 0 15 -5 15 -10 0 -6
25 -35 57 -65 l56 -55 -69 0 c-43 0 -75 5 -82 13 -10 9 -62 12 -192 12 -130 0
-182 -3 -192 -12 -7 -8 -38 -13 -74 -13 -46 0 -63 -4 -68 -15 -3 -8 -17 -15
-31 -15 -14 0 -25 -4 -25 -10 0 -5 -16 -12 -35 -16 -19 -3 -38 -10 -41 -15 -3
-5 -13 -9 -23 -9 -10 0 -24 -7 -31 -15 -7 -8 -23 -15 -35 -15 -13 0 -25 -7
-29 -15 -3 -8 -17 -15 -31 -15 -14 0 -25 -4 -25 -10 0 -5 -8 -10 -17 -10 -10
0 -30 -6 -45 -14 -15 -8 -40 -17 -57 -21 -17 -4 -33 -11 -36 -16 -4 -5 -15 -9
-26 -9 -28 0 -89 -59 -89 -86 0 -12 -7 -24 -15 -28 -8 -3 -15 -13 -15 -23 0
-10 -11 -38 -25 -62 -14 -23 -25 -54 -25 -67 0 -14 -7 -27 -15 -30 -8 -4 -15
-15 -15 -26 0 -10 -11 -39 -25 -64 -14 -25 -25 -53 -25 -64 0 -10 -7 -25 -15
-34 -8 -8 -15 -24 -15 -35 0 -11 -7 -26 -15 -35 -8 -8 -15 -26 -15 -39 0 -14
-7 -30 -15 -37 -8 -7 -15 -21 -15 -31 0 -10 -4 -21 -10 -24 -5 -3 -10 -15 -10
-25 0 -10 -7 -25 -15 -34 -8 -8 -15 -25 -15 -38 0 -13 -7 -33 -15 -44 -8 -10
-15 -27 -15 -37 0 -17 -3 -24 -33 -85 -9 -19 -17 -44 -17 -57 0 -12 -7 -28
-15 -35 -8 -7 -15 -18 -15 -25 0 -11 -20 -58 -41 -97 -5 -10 -9 -27 -9 -38 0
-11 -7 -23 -15 -26 -8 -4 -15 -13 -15 -21 0 -8 -11 -34 -25 -59 -14 -25 -25
-56 -25 -70 0 -13 -7 -27 -15 -30 -8 -4 -15 -16 -15 -29 0 -12 -7 -28 -15 -35
-8 -7 -15 -21 -15 -30 0 -10 -4 -20 -10 -22 -5 -2 -18 -28 -29 -58 -11 -30
-24 -56 -30 -58 -6 -2 -11 -10 -11 -18 0 -12 -35 -89 -61 -134 -5 -8 -12 -22
-15 -30 -3 -8 -12 -26 -19 -40 -7 -14 -25 -47 -39 -74 -14 -27 -26 -55 -26
-62 0 -7 -6 -17 -12 -21 -13 -8 -36 -59 -45 -100 -3 -13 -9 -23 -14 -23 -5 0
-9 -9 -9 -19 0 -11 -7 -26 -15 -35 -8 -8 -15 -24 -15 -35 0 -12 -4 -21 -10
-21 -5 0 -12 -11 -16 -25 -3 -13 -12 -29 -20 -36 -8 -6 -14 -20 -14 -30 0 -11
-4 -19 -10 -19 -5 0 -10 -11 -10 -25 0 -14 -7 -28 -15 -31 -8 -4 -15 -17 -15
-30 0 -13 -4 -24 -9 -24 -5 0 -13 -9 -16 -21 -11 -33 -38 -59 -62 -59 -12 0
-43 -11 -69 -25 -26 -14 -56 -25 -66 -25 -11 0 -26 -7 -34 -15 -9 -8 -26 -15
-40 -15 -13 0 -24 -4 -24 -9 0 -5 -15 -13 -32 -16 -18 -4 -37 -11 -43 -15 -5
-4 -22 -10 -37 -14 -16 -3 -28 -11 -28 -16 0 -6 -12 -10 -27 -10 -16 0 -37 -7
-47 -15 -11 -8 -28 -15 -38 -15 -10 0 -18 -4 -18 -10 0 -5 -8 -10 -17 -10 -10
0 -31 -7 -47 -15 -15 -8 -34 -15 -41 -15 -7 0 -18 -7 -25 -15 -7 -8 -23 -15
-35 -15 -13 0 -25 -7 -29 -15 -3 -9 -18 -15 -35 -15 -16 0 -33 -4 -36 -10 -3
-5 -14 -10 -24 -10 -10 0 -24 -7 -31 -15 -7 -8 -23 -15 -35 -15 -13 0 -25 -7
-29 -15 -3 -8 -17 -15 -31 -15 -14 0 -25 -4 -25 -10 0 -5 -8 -10 -17 -10 -10
0 -31 -7 -47 -15 -15 -8 -34 -15 -41 -15 -7 0 -15 -7 -19 -15 -3 -8 -16 -15
-30 -15 -14 0 -28 -4 -31 -10 -3 -5 -15 -10 -26 -10 -11 0 -22 -7 -25 -15 -4
-8 -14 -15 -23 -15 -9 0 -29 -7 -45 -15 -15 -8 -35 -15 -42 -15 -8 0 -14 -4
-14 -9 0 -5 -10 -13 -22 -16 -37 -11 -87 -35 -93 -45 -3 -6 -14 -10 -24 -10
-10 0 -24 -7 -31 -15 -7 -8 -28 -15 -46 -15 -19 0 -34 -4 -34 -10 0 -5 -10
-10 -22 -10 -13 0 -36 -7 -52 -15 -15 -8 -52 -15 -81 -15 -34 0 -59 -5 -69
-15 -11 -12 -44 -15 -155 -15 -78 0 -141 -4 -141 -9 0 -4 -35 -11 -77 -15 -42
-3 -82 -11 -87 -16 -6 -6 -22 -10 -37 -10 -15 0 -32 -7 -39 -15 -7 -8 -20 -15
-30 -15 -10 0 -20 -7 -24 -15 -3 -8 -12 -15 -20 -15 -7 0 -16 -7 -20 -15 -3
-8 -12 -15 -20 -15 -14 0 -128 -112 -135 -133 -2 -7 -19 -28 -38 -47 -57 -59
-61 -64 -74 -92 -7 -16 -15 -28 -18 -28 -4 0 -15 -17 -26 -37 -11 -21 -26 -44
-32 -51 -7 -7 -13 -20 -13 -28 0 -8 -4 -14 -10 -14 -5 0 -10 -11 -10 -24 0
-14 -7 -31 -15 -40 -22 -22 -22 -370 0 -392 12 -13 15 -49 15 -194 0 -108 4
-181 10 -185 6 -3 10 -33 10 -65 0 -39 5 -64 15 -74 8 -8 15 -23 15 -33 0 -11
7 -28 15 -39 8 -10 15 -24 15 -31 0 -26 133 -161 173 -176 9 -3 17 -11 17 -17
0 -5 7 -10 15 -10 9 0 18 -7 21 -15 8 -20 99 -20 138 0 15 8 34 15 41 15 7 0
18 7 25 15 7 8 20 15 29 15 9 0 28 11 43 25 15 14 34 25 41 25 8 0 20 7 27 15
8 9 30 15 56 15 24 0 44 5 44 10 0 13 167 13 175 0 3 -5 21 -10 40 -10 59 0
65 -14 65 -171 l0 -140 32 -34 c18 -20 41 -35 54 -35 12 0 24 -7 28 -15 4 -12
31 -15 154 -15 121 0 152 3 162 15 7 8 27 15 45 15 18 0 38 7 45 15 7 8 25 15
41 15 15 0 31 5 34 10 3 6 14 10 25 10 10 0 20 7 24 15 3 9 18 15 36 15 20 0
30 5 30 15 0 9 9 15 25 15 14 0 25 5 25 10 0 6 8 10 19 10 10 0 24 7 31 15 7
8 21 15 32 15 10 0 21 7 24 15 4 8 13 15 21 15 8 0 21 6 28 13 32 28 45 37 52
37 5 0 23 14 41 30 18 17 35 30 38 30 5 0 44 41 121 129 18 20 33 39 33 43 0
17 120 56 199 65 25 3 51 12 59 19 7 8 31 14 53 14 21 0 39 5 39 10 0 6 11 10
24 10 12 0 54 12 92 26 38 14 81 28 97 31 15 3 27 9 27 14 0 4 16 11 35 15 19
3 38 10 41 15 3 5 13 9 23 9 10 0 24 7 31 15 7 8 23 15 36 15 15 0 24 6 24 15
0 9 9 15 24 15 14 0 27 4 31 9 7 12 64 41 80 41 7 0 15 7 19 15 3 8 12 15 19
15 8 0 34 11 58 23 24 13 56 27 72 31 15 3 27 11 27 16 0 6 11 10 25 10 16 0
25 6 25 15 0 9 9 15 23 15 13 0 27 4 32 9 6 4 35 17 65 27 30 10 59 24 63 31
4 7 17 13 27 13 11 0 20 4 20 10 0 5 16 12 35 16 19 3 35 10 35 15 0 5 9 9 20
9 11 0 23 7 26 15 4 9 19 15 35 15 19 0 29 5 29 15 0 9 9 15 24 15 23 0 25 -5
30 -62 15 -172 39 -277 65 -286 6 -2 11 -16 11 -32 0 -16 7 -30 15 -34 8 -3
15 -11 15 -17 0 -6 25 -36 55 -66 54 -54 54 -55 48 -101 -3 -26 -10 -50 -15
-53 -5 -3 -12 -47 -15 -98 -3 -50 -10 -94 -15 -97 -4 -3 -8 -74 -8 -159 0
-123 -3 -157 -15 -169 -13 -12 -15 -61 -15 -316 0 -250 -3 -311 -16 -354 -29
-91 -34 -112 -34 -134 0 -12 -4 -22 -10 -22 -5 0 -13 -12 -16 -27 -4 -15 -18
-39 -31 -53 -12 -13 -23 -30 -23 -37 0 -7 -6 -16 -13 -20 -7 -4 -21 -25 -32
-45 -11 -21 -23 -38 -27 -38 -5 0 -8 -7 -8 -15 0 -9 -7 -18 -15 -21 -8 -4 -15
-14 -15 -24 0 -10 -7 -20 -15 -24 -8 -3 -15 -13 -15 -22 0 -9 -11 -29 -25 -46
-14 -16 -25 -38 -25 -49 0 -11 -7 -22 -15 -25 -9 -4 -15 -19 -15 -40 0 -22 -6
-37 -15 -40 -9 -4 -15 -19 -15 -39 0 -19 -4 -36 -9 -40 -5 -3 -13 -46 -17 -95
-3 -50 -11 -93 -15 -96 -12 -7 -12 -364 0 -364 5 0 12 -20 15 -45 4 -24 11
-47 17 -50 5 -4 9 -14 9 -24 0 -10 11 -38 25 -62 14 -24 28 -52 31 -61 4 -10
10 -18 14 -18 4 0 11 -11 14 -25 4 -14 11 -25 16 -25 6 0 10 -7 10 -15 0 -16
12 -34 43 -63 9 -9 17 -22 17 -28 0 -7 11 -26 25 -42 14 -17 25 -33 25 -36 0
-8 15 -28 53 -68 15 -16 27 -32 27 -35 0 -8 61 -85 87 -110 13 -12 23 -26 23
-31 0 -5 18 -29 40 -53 22 -24 40 -54 40 -66 0 -14 6 -23 15 -23 10 0 15 -10
15 -34 0 -19 5 -38 10 -41 6 -4 10 -70 10 -166 0 -99 -4 -159 -10 -159 -7 0
-10 -233 -10 -680 0 -409 -4 -680 -9 -680 -12 0 -71 -59 -71 -71 0 -5 -7 -9
-17 -9 -9 0 -31 -11 -49 -25 -18 -14 -37 -25 -42 -25 -6 0 -12 -7 -16 -15 -3
-8 -10 -15 -16 -15 -6 0 -16 -5 -23 -11 -7 -5 -27 -20 -46 -32 -19 -12 -42
-27 -50 -32 -9 -6 -42 -27 -73 -48 -31 -20 -64 -37 -71 -37 -8 0 -17 -7 -21
-15 -3 -8 -12 -15 -21 -15 -8 0 -15 -4 -15 -10 0 -5 -5 -10 -12 -10 -17 0 -97
-63 -98 -77 0 -7 -6 -13 -12 -13 -18 -1 -48 -64 -48 -100 0 -16 -4 -32 -10
-35 -13 -8 -13 -232 0 -240 6 -4 10 -162 10 -441 0 -400 1 -436 18 -453 28
-30 90 -61 122 -61 19 0 30 -5 30 -14 0 -7 12 -16 28 -19 34 -7 190 -62 199
-71 3 -3 21 -6 40 -6 21 0 36 -6 39 -15 4 -8 18 -15 34 -15 15 0 41 -7 56 -15
16 -8 44 -15 62 -15 17 0 32 -4 32 -10 0 -5 18 -10 40 -10 27 0 43 -5 46 -15
5 -11 22 -15 64 -15 39 0 64 -5 74 -15 10 -10 35 -15 76 -15 34 0 70 -4 80
-10 10 -5 57 -13 104 -16 47 -4 86 -11 86 -15 0 -5 28 -9 63 -9 35 -1 73 -7
87 -15 14 -8 45 -15 70 -15 25 0 54 -7 64 -15 11 -8 30 -15 42 -15 13 0 26 -4
29 -10 3 -5 28 -10 56 -10 37 0 49 -4 49 -15 0 -11 12 -15 48 -15 26 0 56 -7
66 -15 25 -19 73 -19 110 0 15 8 41 15 56 15 16 0 30 7 34 15 3 9 18 15 36 15
17 0 38 4 48 9 9 6 34 13 55 16 20 3 37 10 37 15 0 6 27 10 59 10 43 0 60 4
65 15 4 11 22 15 70 15 36 0 67 4 70 9 3 4 38 12 78 16 40 3 78 11 85 16 18
15 85 6 96 -13 8 -12 7 -29 -4 -60 -9 -27 -14 -85 -14 -159 0 -113 1 -116 28
-141 15 -14 27 -30 27 -37 0 -6 13 -11 29 -11 16 0 31 -6 35 -15 4 -10 19 -15
49 -15 24 0 47 -4 53 -9 5 -6 51 -13 102 -17 51 -4 95 -11 98 -15 3 -5 32 -9
64 -9 39 0 64 -5 74 -15 9 -10 34 -15 68 -15 30 0 59 -5 65 -11 6 -6 43 -14
82 -17 39 -2 71 -9 71 -13 0 -5 25 -9 55 -9 40 0 57 -4 61 -15 5 -11 21 -15
61 -15 35 0 60 -5 69 -15 9 -9 34 -15 60 -15 24 0 44 -4 44 -8 0 -8 48 -23
135 -42 22 -4 41 -13 43 -19 2 -6 16 -11 32 -11 15 0 33 -7 40 -15 7 -8 21
-15 31 -15 10 0 21 -4 24 -10 3 -5 15 -10 25 -10 10 0 25 -7 34 -15 8 -8 19
-15 24 -15 5 0 23 -7 38 -15 37 -19 150 -19 184 0 14 8 42 14 63 15 26 0 37 4
37 15 0 11 11 15 40 15 22 0 40 5 40 10 0 6 8 10 18 10 9 0 29 6 43 14 14 7
37 16 52 20 15 3 27 11 27 16 0 6 12 10 28 10 15 0 36 7 46 15 11 8 28 15 38
15 10 0 18 5 18 10 0 6 15 10 34 10 21 0 36 6 40 15 3 9 18 15 40 15 21 0 36
6 40 15 3 9 18 15 36 15 16 0 30 5 30 10 0 6 10 10 23 10 13 0 32 7 43 15 10
8 33 15 50 15 19 0 34 6 38 15 3 9 18 15 39 15 18 0 37 4 43 9 11 10 107 41
129 41 9 0 23 7 31 15 9 8 33 15 55 15 21 0 39 4 39 9 0 5 19 12 43 16 23 4
47 10 52 13 27 17 114 41 146 42 23 0 39 6 43 15 3 10 19 15 45 15 22 0 42 4
45 9 3 4 24 11 46 15 22 3 40 11 40 16 0 6 9 10 20 10 11 0 23 7 26 15 4 8 16
15 29 15 12 0 28 7 35 15 7 8 17 15 23 15 5 0 20 10 32 23 12 12 34 31 48 42
14 11 26 25 27 31 0 7 7 14 15 18 12 4 15 28 15 130 0 72 -4 127 -10 131 -5 3
-10 42 -10 85 0 43 5 82 10 85 6 3 10 46 10 95 0 65 4 92 15 104 22 22 22 921
0 950 -11 14 -15 46 -15 107 0 48 -4 91 -10 94 -6 4 -10 80 -10 196 0 119 4
189 10 189 6 0 10 123 10 348 0 291 2 351 15 368 8 11 15 41 15 69 0 28 5 56
11 62 6 6 14 50 16 97 3 48 10 89 14 92 13 7 11 271 -1 279 -5 3 -10 33 -10
65 0 39 -5 64 -15 74 -13 12 -15 65 -15 348 0 254 3 337 13 346 9 10 13 111
15 420 2 239 7 411 13 416 5 6 9 182 9 438 0 372 2 429 15 434 13 5 15 41 15
235 0 188 3 234 16 262 15 30 14 36 -2 75 -18 40 -21 42 -61 42 -24 0 -43 -4
-43 -10 0 -5 -13 -10 -29 -10 -16 0 -34 -7 -41 -15 -7 -8 -23 -15 -35 -15 -13
0 -25 -7 -29 -15 -3 -9 -18 -15 -40 -15 -19 0 -38 -5 -41 -10 -3 -5 -18 -10
-33 -10 -15 0 -40 -7 -56 -15 -15 -8 -52 -15 -81 -15 -35 0 -57 -5 -65 -15
-15 -18 -90 -21 -90 -3 0 16 40 97 51 104 5 3 9 13 9 23 0 23 47 71 70 71 10
0 20 7 24 15 4 11 22 15 70 15 36 0 68 4 71 10 3 5 27 10 53 10 26 1 58 7 72
15 14 8 51 14 83 15 42 0 59 4 63 15 4 10 20 15 45 15 21 0 39 4 39 9 0 5 12
14 28 19 30 12 112 85 112 102 0 6 7 13 15 16 8 4 15 12 15 20 0 7 11 25 25
40 14 15 25 34 25 43 0 9 7 29 15 45 11 21 15 63 15 166 0 110 3 140 15 150
12 10 15 38 15 132 0 93 3 123 15 134 12 13 15 55 15 249 0 145 4 236 10 240
6 3 10 26 10 51 0 30 5 46 15 50 11 5 15 24 15 81 0 53 4 79 15 89 10 11 15
36 15 80 0 35 4 72 10 82 5 9 12 43 15 74 4 32 11 60 16 63 5 4 9 26 9 50 0
25 6 50 15 59 8 8 15 28 15 45 0 16 4 32 9 35 4 3 11 28 15 55 4 28 11 53 16
56 6 3 10 39 10 80 0 55 4 74 15 79 10 3 15 19 15 46 0 23 5 51 12 63 12 22
24 76 35 150 3 21 11 41 19 44 9 3 14 21 14 48 0 25 6 50 15 59 8 8 15 23 15
33 1 21 34 120 44 130 3 3 6 21 6 40 0 21 6 36 15 39 10 4 15 20 15 48 0 22 7
50 15 60 8 11 15 37 15 57 0 21 5 41 10 44 6 3 10 28 10 54 0 31 5 53 15 61
10 8 15 31 15 70 0 39 5 62 15 70 9 7 15 29 15 51 0 21 5 41 10 44 6 3 10 14
10 24 0 10 7 24 15 31 12 10 15 38 15 131 0 73 -4 119 -10 119 -5 0 -10 6 -10
12 0 24 -65 148 -77 148 -7 0 -13 7 -13 16 0 15 -9 27 -62 85 -10 10 -18 24
-18 29 0 6 -4 10 -9 10 -5 0 -23 14 -40 31 -17 17 -31 35 -31 40 0 5 -7 9 -15
9 -9 0 -18 7 -21 15 -4 8 -15 15 -25 15 -10 0 -19 5 -19 10 0 6 -7 10 -15 10
-9 0 -18 7 -21 15 -4 8 -14 15 -24 15 -10 0 -23 7 -31 16 -7 8 -25 22 -41 30
-47 24 -58 60 -58 189 0 90 -3 120 -15 131 -10 11 -15 36 -15 83 0 55 -5 78
-26 116 -15 25 -33 49 -40 52 -8 3 -14 11 -14 19 0 8 -4 14 -9 14 -6 0 -22 11
-37 25 -15 14 -32 25 -39 25 -7 0 -18 7 -25 15 -7 8 -28 15 -47 15 -21 0 -36
6 -39 15 -5 11 -23 15 -79 15 -52 0 -78 4 -89 15 -11 12 -40 15 -125 15 -62 0
-112 4 -116 10 -3 6 -22 10 -40 10 -46 0 -60 26 -40 73 8 19 18 37 23 39 11 4
92 157 92 173 0 7 7 18 15 25 8 7 15 24 15 39 0 14 7 35 15 45 8 11 15 30 15
42 0 13 5 26 10 29 6 3 10 29 10 56 0 35 4 51 15 55 11 5 15 22 15 64 0 39 5
64 15 74 11 10 15 36 15 91 0 42 5 85 10 95 6 11 13 95 17 187 3 92 10 170 14
171 5 2 9 65 9 141 0 105 3 142 15 157 22 29 22 949 0 958 -13 4 -15 38 -15
215 0 121 -4 212 -9 216 -6 3 -13 26 -17 50 -3 25 -10 45 -15 45 -5 0 -9 15
-9 33 -1 17 -7 43 -15 57 -8 14 -14 35 -15 48 0 13 -7 30 -15 38 -11 11 -15
39 -15 103 0 67 4 92 15 101 8 7 15 18 15 25 0 7 7 26 15 41 8 16 15 37 15 47
0 9 4 17 9 17 5 0 12 16 15 35 4 19 11 35 16 35 6 0 10 13 10 29 0 16 7 34 15
41 8 7 15 18 15 25 0 7 7 26 15 41 8 16 15 37 15 46 0 9 5 20 10 23 6 3 10 22
10 41 0 24 5 34 15 34 10 0 15 10 15 29 0 16 7 34 15 41 8 7 15 23 15 35 0 13
7 36 15 51 8 16 15 37 15 47 0 9 5 17 10 17 6 0 10 10 10 23 0 13 7 32 15 43
8 10 15 29 15 40 0 12 7 27 15 34 8 7 15 19 15 27 0 8 13 28 29 44 25 25 37
29 84 29 40 0 56 4 61 15 3 8 13 15 21 15 46 0 173 102 175 140 0 8 7 28 15
44 16 31 21 151 6 160 -5 3 -12 22 -15 41 -8 40 -58 99 -93 110 -13 3 -23 11
-23 16 0 5 -22 9 -49 9 -31 0 -55 6 -65 15 -8 8 -24 15 -35 15 -11 0 -26 -7
-35 -15 -9 -9 -33 -15 -64 -15 -35 0 -52 -4 -56 -15 -3 -8 -13 -15 -21 -15
-22 0 -135 -118 -135 -141 0 -10 -7 -24 -15 -33 -10 -9 -15 -34 -15 -71 0 -37
5 -62 15 -71 11 -11 15 -38 15 -95 0 -62 -3 -81 -15 -85 -9 -4 -15 -19 -15
-39 0 -18 -6 -35 -12 -38 -7 -2 -19 -26 -26 -53 -7 -27 -19 -62 -27 -77 -8
-16 -15 -39 -15 -52 0 -12 -7 -28 -15 -35 -8 -7 -15 -24 -15 -39 0 -15 -5 -32
-12 -39 -15 -15 -38 -81 -38 -110 0 -12 -7 -25 -15 -28 -9 -4 -15 -19 -15 -36
0 -16 -7 -36 -15 -44 -8 -9 -15 -24 -15 -34 0 -10 -4 -22 -10 -25 -5 -3 -10
-17 -10 -30 0 -13 -7 -30 -15 -39 -8 -8 -15 -22 -15 -31 0 -22 -49 -114 -73
-139 -14 -13 -22 -15 -30 -7 -6 6 -25 11 -43 11 -17 0 -45 7 -60 15 -16 8 -39
15 -52 15 -13 0 -30 7 -38 15 -9 8 -31 15 -49 15 -19 0 -37 5 -40 10 -3 6 -22
10 -41 10 -22 0 -37 6 -40 15 -4 9 -19 15 -41 15 -20 0 -58 7 -87 16 -100 31
-117 36 -171 41 -30 3 -55 10 -55 14 0 5 -40 9 -89 9 -70 0 -90 3 -95 15 -4
12 -29 15 -134 15 -83 0 -132 4 -139 11 -7 7 -57 14 -113 17 -55 3 -103 9
-106 13 -3 5 -31 9 -63 9 -40 0 -63 5 -71 15 -7 8 -29 15 -50 15 -21 0 -51 7
-66 15 -16 8 -50 15 -76 15 -26 0 -49 4 -53 10 -3 5 -33 12 -66 16 -32 4 -62
11 -65 15 -3 5 -38 9 -78 9 -53 0 -77 4 -86 15 -10 12 -37 15 -124 15 -76 0
-116 4 -125 13 -17 17 -736 17 -768 -1 -28 -16 -554 -17 -584 -2 -13 7 -19 21
-19 45 0 18 -4 37 -10 40 -5 3 -10 26 -10 50 0 25 -6 50 -15 59 -9 9 -15 34
-15 63 0 26 -7 57 -15 67 -9 11 -15 41 -15 68 0 26 -4 48 -9 48 -5 0 -12 29
-16 65 -3 36 -11 67 -16 70 -5 4 -9 27 -9 53 -1 26 -7 58 -15 72 -18 31 -20
182 -3 213 24 45 47 207 29 207 -6 0 -11 10 -11 23 0 43 -67 117 -106 117 -14
0 -32 7 -40 15 -12 11 -39 15 -109 15 -73 0 -94 -3 -99 -15z m1524 -1475 c0
-6 63 -10 170 -10 142 0 172 -2 176 -15 5 -12 25 -15 94 -15 49 0 91 -4 94 -9
4 -5 40 -12 81 -16 42 -4 78 -11 81 -16 3 -5 34 -9 70 -9 48 0 66 -4 70 -15 4
-10 20 -15 49 -15 23 0 56 -7 71 -15 16 -8 38 -15 49 -15 30 0 99 -26 103 -39
2 -6 10 -11 18 -11 18 0 54 -36 54 -54 0 -8 5 -18 10 -21 6 -3 10 -14 10 -23
0 -9 7 -29 15 -45 12 -24 12 -32 -1 -62 -7 -19 -14 -63 -14 -99 0 -36 -4 -68
-10 -71 -6 -4 -10 -215 -10 -600 0 -518 -2 -594 -15 -599 -13 -4 -15 -40 -15
-230 0 -186 -3 -226 -14 -233 -12 -6 -16 -42 -20 -163 -5 -173 -24 -360 -37
-360 -5 0 -9 -26 -9 -57 -1 -35 -6 -66 -15 -77 -8 -11 -15 -40 -15 -65 -1 -25
-7 -57 -15 -71 -8 -14 -14 -39 -15 -57 0 -17 -4 -35 -10 -38 -5 -3 -10 -16
-10 -27 0 -11 -10 -31 -22 -43 -13 -12 -33 -33 -45 -46 -55 -61 -75 -69 -176
-69 -65 0 -104 5 -123 15 -24 13 -98 15 -465 15 -333 0 -438 3 -447 12 -9 9
-61 14 -165 16 -84 2 -156 8 -161 13 -6 5 -61 9 -123 9 -92 0 -115 3 -119 15
-5 12 -31 15 -149 15 -96 0 -145 4 -147 11 -2 6 -33 15 -68 19 -88 11 -160 30
-160 41 0 5 -14 9 -30 9 -25 0 -44 14 -100 72 -39 40 -70 76 -70 80 0 5 -7 8
-15 8 -8 0 -15 7 -15 16 0 15 -9 27 -62 85 -10 10 -18 23 -18 28 0 5 -7 11
-15 15 -8 3 -15 11 -15 18 0 7 -11 25 -25 40 -14 15 -25 36 -25 46 0 11 -7 22
-15 26 -8 3 -15 17 -15 31 0 14 -4 33 -9 43 -25 50 -35 95 -39 171 -2 55 -9
89 -18 98 -22 22 -21 885 1 907 13 12 15 55 15 256 0 201 2 244 15 256 11 11
15 38 15 95 0 44 4 87 10 97 5 9 12 43 15 74 4 32 11 60 16 63 5 4 9 19 9 34
0 16 7 42 15 57 8 16 15 37 15 47 0 9 5 17 10 17 6 0 10 9 10 20 0 11 7 23 15
26 8 4 15 10 15 15 0 12 87 99 99 99 5 0 11 7 15 15 3 8 15 15 26 15 11 0 20
5 20 10 0 6 8 10 18 10 9 0 30 7 46 15 15 8 34 15 41 15 7 0 18 7 25 15 7 8
21 15 32 15 24 0 120 30 133 41 5 5 24 9 42 9 21 0 36 6 39 15 5 11 22 15 64
15 33 0 61 4 64 9 3 4 42 12 86 15 44 4 82 12 85 17 4 5 64 9 135 9 104 0 129
3 134 15 4 13 35 15 191 15 117 0 185 4 185 10 0 6 42 10 105 10 63 0 105 -4
105 -10z m1420 -275 c0 -29 5 -45 15 -49 11 -4 15 -22 15 -69 0 -45 -5 -68
-15 -77 -13 -11 -15 -62 -15 -350 0 -277 -3 -344 -15 -373 -19 -47 -22 -540
-3 -582 10 -22 17 -25 60 -25 l48 0 0 39 c0 22 6 44 15 51 10 8 15 31 15 69 0
31 4 61 9 66 6 6 13 62 17 125 4 63 11 117 15 118 5 2 9 154 9 337 0 287 2
334 15 339 9 3 15 18 15 36 0 18 4 29 10 25 17 -10 12 -161 -5 -179 -13 -12
-15 -74 -15 -429 0 -360 2 -416 15 -421 9 -3 15 -18 15 -36 0 -16 4 -30 10
-30 5 0 17 -16 26 -36 15 -31 16 -41 5 -68 -7 -17 -16 -42 -19 -56 -3 -13 -11
-30 -18 -37 -13 -13 -44 -8 -44 8 0 15 -70 10 -86 -6 -9 -8 -24 -15 -35 -15
-14 0 -21 -9 -25 -30 -4 -16 -13 -30 -20 -30 -8 0 -14 -9 -14 -21 0 -11 -6
-30 -12 -42 -7 -12 -16 -69 -19 -127 -3 -58 -6 339 -7 883 -1 652 1 987 8 987
6 0 10 14 10 31 0 17 4 28 10 24 6 -3 10 -26 10 -50z m448 -407 c8 -8 12 -54
12 -153 0 -99 -4 -145 -12 -153 -9 -9 -15 -70 -19 -195 -6 -184 -14 -241 -30
-231 -15 9 -11 478 4 492 9 10 13 92 17 315 4 296 5 298 10 120 3 -126 9 -186
18 -195z m232 -113 c0 -258 -4 -406 -10 -410 -6 -4 -10 41 -10 128 0 111 -3
136 -15 141 -12 4 -15 32 -15 166 0 134 3 162 15 166 12 5 15 28 15 116 0 70
4 107 10 103 6 -4 10 -152 10 -410z m240 94 c0 -107 8 -135 56 -186 16 -18 24
-35 20 -48 -19 -80 -26 -99 -35 -108 -6 -6 -11 -25 -11 -43 0 -17 -7 -37 -15
-44 -8 -7 -15 -23 -15 -35 0 -13 -7 -36 -15 -51 -8 -16 -15 -37 -15 -46 0 -9
-3 -19 -7 -21 -11 -7 -3 344 8 365 5 9 9 87 9 173 0 102 3 154 10 150 6 -3 10
-50 10 -106z m438 -211 c4 -126 3 -138 -14 -145 -22 -8 -124 -107 -124 -121 0
-5 -7 -23 -15 -38 -8 -16 -15 -37 -15 -46 0 -10 -4 -18 -9 -18 -5 0 -12 -16
-15 -35 -4 -19 -11 -35 -16 -35 -6 0 -10 -13 -10 -29 0 -17 -4 -33 -10 -36
-16 -10 -12 101 4 114 8 6 16 26 19 44 11 66 29 127 38 127 5 0 9 15 9 34 0
18 7 39 15 46 8 7 15 23 15 35 0 13 7 36 15 51 8 16 15 37 15 46 0 9 5 20 10
23 6 3 10 21 10 40 0 20 6 35 15 39 9 3 15 18 15 39 0 44 10 52 28 25 12 -16
17 -58 20 -160z m-613 -627 c3 -5 19 -12 35 -16 26 -6 30 -11 30 -41 0 -27 -4
-34 -19 -34 -10 0 -24 -7 -31 -15 -7 -8 -19 -15 -28 -15 -8 0 -25 -11 -38 -25
-13 -14 -29 -25 -36 -25 -7 -1 -26 -21 -41 -45 -16 -25 -33 -45 -38 -45 -5 0
-9 -11 -9 -24 0 -13 -5 -26 -11 -28 -13 -4 -35 -64 -44 -120 -4 -21 -11 -40
-16 -44 -5 -3 -9 -50 -9 -105 0 -79 3 -101 15 -105 8 -4 15 -11 15 -16 0 -17
116 -98 140 -98 11 0 75 -58 69 -63 -26 -19 -61 -37 -74 -37 -9 0 -18 -7 -21
-15 -10 -24 -49 -17 -83 15 -17 17 -31 35 -31 40 0 6 -4 10 -10 10 -5 0 -10
13 -10 29 0 16 -7 34 -15 41 -11 9 -15 33 -15 85 0 56 -4 74 -15 79 -12 4 -15
25 -15 101 0 76 3 97 15 101 10 4 15 21 15 53 0 25 7 55 15 65 8 11 15 30 15
43 0 13 5 23 10 23 6 0 10 9 10 19 0 11 7 26 15 35 8 8 15 23 15 34 0 11 6 22
13 25 8 3 22 21 31 41 9 20 21 36 26 36 6 0 10 7 10 15 0 7 8 19 18 24 21 13
89 14 97 2z m-520 -1833 c6 -14 20 -24 35 -26 14 -2 36 -8 49 -15 33 -17 236
-16 253 1 8 8 43 12 99 12 65 0 90 4 99 15 9 11 33 15 85 15 52 0 76 -4 85
-15 9 -11 32 -15 80 -15 51 0 69 4 74 15 3 8 14 15 25 15 11 0 22 6 24 13 3 7
6 5 6 -5 2 -38 -30 -58 -91 -58 -32 0 -58 -4 -58 -10 0 -7 -183 -10 -529 -10
-343 0 -532 4 -536 10 -3 6 -24 10 -46 10 -24 0 -38 4 -34 10 3 6 15 10 26 10
11 0 22 7 25 15 5 11 24 15 80 15 43 0 74 4 74 10 0 6 34 10 83 10 76 0 83 -2
92 -22z m-3359 -123 c5 -12 28 -15 119 -15 63 0 115 -4 117 -10 2 -5 52 -12
111 -16 59 -4 110 -11 113 -15 3 -5 52 -9 110 -9 84 0 106 -3 110 -15 5 -12
25 -15 93 -15 53 0 92 -5 99 -12 6 -6 50 -14 97 -16 47 -3 88 -8 91 -13 3 -5
46 -9 95 -9 70 0 91 -3 95 -15 5 -12 25 -15 95 -15 70 0 91 -3 95 -15 5 -12
24 -15 86 -15 44 0 88 -4 98 -10 10 -5 57 -13 104 -16 47 -4 86 -11 86 -15 0
-5 36 -9 80 -9 62 0 82 -3 86 -15 5 -11 23 -15 78 -15 40 0 77 -5 83 -11 6 -6
50 -14 97 -16 47 -3 86 -10 86 -14 0 -5 35 -9 79 -9 58 0 82 -4 91 -15 9 -11
33 -15 87 -15 56 0 75 -4 79 -15 4 -10 20 -15 49 -15 24 0 47 -4 50 -10 3 -5
15 -10 26 -10 11 0 22 -7 25 -15 4 -8 15 -15 26 -15 12 0 40 -20 64 -44 l44
-43 0 -225 c0 -162 -3 -227 -12 -236 -12 -12 -24 -182 -34 -482 -4 -121 -8
-157 -20 -163 -11 -6 -14 -38 -14 -160 -1 -113 -4 -158 -15 -177 -11 -19 -14
-66 -15 -188 0 -94 -4 -172 -10 -183 -6 -11 -14 -118 -17 -240 -3 -121 -10
-222 -15 -225 -4 -3 -8 -184 -8 -403 0 -342 -2 -400 -15 -411 -10 -8 -15 -30
-15 -62 0 -31 -6 -55 -15 -64 -8 -9 -15 -24 -15 -35 0 -10 -4 -19 -10 -19 -5
0 -10 -11 -10 -25 0 -16 -6 -25 -15 -25 -9 0 -15 -9 -15 -24 0 -13 -7 -29 -15
-36 -8 -7 -15 -21 -15 -31 0 -11 -4 -19 -10 -19 -5 0 -10 -7 -10 -15 0 -9 -7
-18 -15 -21 -8 -4 -15 -14 -15 -24 0 -11 -4 -21 -9 -25 -6 -3 -20 -27 -33 -53
-13 -26 -26 -48 -30 -50 -5 -2 -8 -15 -8 -28 0 -13 -6 -24 -12 -24 -7 -1 -28
-32 -46 -70 -19 -39 -38 -70 -43 -70 -5 0 -9 -11 -9 -25 0 -14 -3 -25 -8 -25
-11 0 -72 -105 -72 -124 0 -9 -7 -16 -15 -16 -8 0 -15 -9 -15 -20 0 -12 -11
-33 -25 -48 -14 -15 -25 -35 -25 -45 0 -10 -7 -20 -15 -23 -8 -4 -15 -14 -15
-25 0 -10 -11 -30 -25 -45 -14 -15 -25 -32 -25 -39 0 -7 -7 -18 -15 -25 -8 -7
-15 -21 -15 -31 0 -9 -7 -24 -15 -33 -8 -8 -15 -19 -15 -23 0 -15 -56 -121
-73 -138 -19 -18 -78 -20 -95 -3 -8 8 -53 14 -120 16 -59 2 -111 8 -117 12 -5
4 -67 11 -138 15 -70 4 -130 11 -133 16 -3 5 -56 9 -118 9 -89 0 -116 3 -126
15 -9 11 -34 15 -101 15 -48 0 -90 4 -94 9 -3 5 -50 13 -105 17 -55 3 -103 11
-106 15 -3 5 -45 9 -94 9 -65 0 -92 4 -104 15 -10 11 -37 15 -93 15 -44 0 -83
4 -89 10 -11 11 -134 30 -247 37 -55 3 -80 9 -84 19 -4 10 -26 14 -88 14 -54
0 -93 5 -111 15 -20 10 -59 15 -126 15 -53 0 -99 4 -102 9 -4 5 -56 13 -116
16 -61 4 -110 11 -110 16 0 5 -44 9 -99 9 -75 0 -101 4 -111 15 -8 9 -30 15
-56 15 l-44 0 0 64 c0 48 -4 65 -15 70 -8 3 -15 14 -15 25 0 11 -4 22 -9 25
-4 3 -11 42 -13 86 -3 44 -10 86 -16 92 -16 16 -16 140 1 156 8 9 13 63 15
175 2 89 8 166 13 172 5 5 9 253 9 587 0 507 2 578 15 578 13 0 15 38 15 279
0 235 2 280 15 291 13 10 15 54 15 275 0 184 3 264 11 267 8 3 13 131 17 426
3 232 9 422 14 422 4 0 8 40 8 88 0 56 4 92 12 100 7 7 15 38 19 70 6 53 20
104 40 144 5 10 9 28 9 41 0 12 8 30 18 39 9 9 22 23 28 30 24 29 75 68 88 68
8 0 16 7 20 15 3 8 13 15 23 15 10 0 27 7 37 15 11 8 28 15 38 15 10 0 18 5
18 10 0 6 20 10 44 10 26 0 48 6 56 15 10 12 44 15 187 15 145 0 175 -2 179
-15z m-1044 -572 c-2 -104 -8 -192 -13 -197 -5 -6 -9 -161 -9 -352 0 -291 -2
-345 -15 -358 -13 -12 -15 -62 -15 -318 -1 -267 -3 -309 -19 -356 -10 -29 -21
-55 -25 -59 -3 -3 -6 -14 -6 -24 0 -9 -7 -19 -15 -23 -8 -3 -15 -13 -15 -22 0
-9 -11 -29 -25 -46 -14 -16 -25 -35 -25 -43 0 -7 -7 -18 -15 -25 -8 -7 -15
-19 -15 -27 0 -7 -11 -26 -25 -41 -14 -15 -25 -34 -25 -43 0 -9 -7 -22 -15
-29 -8 -7 -15 -18 -15 -25 0 -7 -13 -27 -29 -44 -32 -35 -89 -43 -111 -16 -8
10 -31 15 -69 15 -31 0 -61 4 -67 10 -11 11 -112 30 -202 37 -42 3 -65 10 -69
19 -3 9 -21 14 -54 14 -52 0 -60 10 -35 45 7 11 16 32 20 48 3 15 11 27 16 27
6 0 10 7 10 15 0 8 11 34 25 59 14 25 25 52 25 61 0 8 7 18 15 21 8 4 15 18
15 34 0 15 7 33 15 40 8 7 15 21 15 30 0 10 3 20 8 22 10 4 42 75 42 94 0 8 7
17 15 20 9 4 15 19 15 40 0 19 4 34 9 34 5 0 19 27 31 60 12 33 26 60 31 60 5
0 9 16 9 35 0 22 6 38 15 41 8 4 15 14 15 24 0 10 7 31 15 46 8 16 15 37 15
47 0 9 5 17 10 17 6 0 10 11 10 24 0 14 7 31 15 40 8 8 15 24 15 36 0 12 6 28
14 35 7 8 22 41 32 74 10 34 21 61 26 61 4 0 8 9 8 19 0 11 14 46 30 78 17 31
30 65 30 75 0 10 5 18 10 18 6 0 10 11 10 24 0 13 7 29 15 36 8 7 15 25 15 41
0 16 4 29 10 29 5 0 13 12 16 28 4 15 18 47 31 71 12 24 23 53 23 63 0 11 7
26 15 34 8 9 15 24 15 35 0 10 4 19 8 19 10 0 42 71 42 94 0 9 7 19 15 22 8 4
15 12 15 20 0 7 11 33 25 58 14 25 25 51 25 59 0 8 7 17 15 21 8 3 15 13 15
22 0 13 37 84 43 84 1 0 1 -84 -1 -187z m4814 112 c5 -12 31 -15 145 -15 l138
0 17 -31 c23 -45 12 -129 -26 -208 -11 -25 -27 -23 -34 4 -4 14 -11 25 -16 25
-6 0 -10 20 -10 45 0 25 -4 45 -8 45 -5 0 -14 11 -20 25 -10 22 -18 25 -61 25
-65 0 -81 -7 -81 -36 0 -14 -7 -27 -15 -30 -12 -5 -15 -24 -15 -86 0 -71 -3
-82 -27 -114 -16 -18 -31 -34 -35 -34 -5 0 -8 33 -8 74 0 56 -4 75 -15 80 -12
4 -15 27 -15 116 l0 110 -70 0 c-56 0 -70 -3 -70 -15 0 -8 -7 -15 -15 -15 -11
0 -15 -13 -15 -54 0 -35 -5 -58 -15 -66 -11 -9 -15 -32 -15 -81 0 -89 -17 -98
-24 -12 -8 110 -17 167 -28 181 -12 14 -66 16 -100 3 -35 -13 -56 -66 -66
-161 -6 -50 -10 -69 -11 -45 -1 22 -8 49 -16 59 -11 14 -15 46 -15 105 0 128
-17 121 287 121 216 0 254 -2 259 -15z m614 -515 c0 -6 33 -10 79 -10 58 0 82
-4 91 -15 9 -11 32 -15 80 -15 48 0 71 -4 80 -15 7 -8 21 -15 31 -15 15 0 19
-7 19 -35 0 -24 -5 -35 -15 -35 -10 0 -15 -10 -15 -29 0 -16 -7 -34 -15 -41
-8 -7 -15 -25 -15 -41 0 -15 -4 -30 -9 -33 -4 -3 -11 -24 -15 -46 -3 -22 -11
-40 -16 -40 -6 0 -10 -22 -10 -49 0 -31 -5 -53 -15 -61 -8 -7 -15 -29 -15 -50
0 -21 -7 -51 -15 -66 -8 -16 -15 -41 -15 -56 0 -15 -4 -30 -10 -33 -5 -3 -10
-17 -10 -31 0 -14 -7 -27 -15 -30 -9 -4 -15 -19 -15 -39 0 -18 -7 -38 -15 -45
-8 -7 -15 -25 -15 -41 0 -16 -4 -29 -9 -29 -5 0 -12 -16 -15 -35 -4 -19 -11
-35 -16 -35 -6 0 -10 -13 -10 -29 0 -16 -7 -42 -15 -57 -8 -16 -15 -36 -15
-44 0 -9 -4 -20 -9 -25 -14 -17 -41 -112 -41 -149 0 -25 -4 -36 -15 -36 -11 0
-15 -11 -15 -38 0 -21 -4 -42 -9 -47 -10 -12 -37 -97 -46 -147 -4 -21 -11 -38
-16 -38 -5 0 -9 -17 -9 -38 0 -21 -7 -47 -15 -58 -8 -10 -15 -36 -15 -56 0
-21 -4 -38 -9 -38 -5 0 -12 -18 -16 -40 -4 -22 -11 -42 -16 -46 -5 -3 -9 -27
-9 -54 0 -33 -5 -50 -15 -54 -9 -3 -15 -18 -15 -35 0 -16 -7 -42 -15 -57 -8
-16 -15 -44 -15 -61 0 -18 -4 -33 -9 -33 -5 0 -12 -18 -16 -40 -4 -22 -11 -42
-16 -46 -5 -3 -9 -27 -9 -54 0 -33 -5 -50 -15 -54 -9 -3 -15 -18 -15 -40 0
-19 -4 -38 -10 -41 -5 -3 -10 -31 -10 -62 0 -49 -4 -59 -30 -85 -16 -15 -30
-37 -30 -48 0 -11 -4 -20 -10 -20 -5 0 -12 -11 -16 -25 -3 -14 -10 -25 -15
-25 -5 0 -9 -11 -9 -25 0 -14 -7 -28 -15 -31 -8 -4 -15 -16 -15 -29 0 -13 -7
-25 -15 -29 -8 -3 -15 -15 -15 -26 0 -11 -3 -20 -8 -20 -8 0 -23 -26 -42 -72
-7 -16 -16 -28 -21 -28 -5 0 -9 -9 -9 -20 0 -11 -4 -20 -10 -20 -5 0 -12 -11
-16 -25 -3 -14 -10 -25 -15 -25 -5 0 -9 -11 -9 -25 0 -13 -6 -28 -12 -32 -13
-8 -23 -24 -60 -94 -11 -21 -24 -39 -29 -39 -5 0 -9 -11 -9 -24 0 -13 -7 -29
-15 -36 -8 -7 -15 -19 -15 -27 0 -7 -11 -26 -25 -41 -14 -15 -25 -34 -25 -44
0 -9 -7 -23 -15 -32 -8 -8 -15 -22 -15 -31 0 -8 -7 -18 -15 -21 -8 -4 -15 -15
-15 -25 0 -10 -4 -19 -10 -19 -5 0 -10 -9 -10 -19 0 -11 -6 -26 -13 -33 -7 -7
-22 -29 -33 -48 -10 -19 -29 -46 -41 -60 -13 -13 -23 -33 -23 -43 0 -10 -7
-20 -15 -23 -8 -4 -15 -13 -15 -21 0 -7 -11 -26 -25 -41 -14 -15 -25 -34 -25
-43 0 -9 -7 -22 -15 -29 -8 -7 -15 -20 -15 -30 0 -10 -7 -20 -15 -24 -8 -3
-15 -12 -15 -21 0 -9 -11 -28 -25 -43 -14 -15 -25 -34 -25 -44 0 -9 -7 -23
-15 -32 -8 -8 -15 -19 -15 -24 0 -16 -31 -72 -41 -72 -5 0 -9 -9 -9 -19 0 -11
-7 -26 -15 -35 -8 -8 -15 -23 -15 -34 0 -11 -7 -22 -15 -26 -8 -3 -15 -14 -15
-25 0 -11 -4 -23 -10 -26 -5 -3 -10 -15 -10 -26 0 -11 -7 -22 -15 -25 -8 -4
-15 -16 -15 -29 0 -13 -7 -25 -15 -29 -8 -3 -15 -14 -15 -24 0 -11 -7 -25 -15
-32 -8 -7 -15 -21 -15 -31 0 -11 -4 -19 -10 -19 -5 0 -10 -7 -10 -15 0 -9 -7
-18 -15 -21 -8 -4 -15 -15 -15 -25 0 -16 -8 -19 -46 -19 -27 0 -51 6 -60 15
-9 8 -24 15 -34 15 -10 0 -22 5 -25 10 -3 6 -19 10 -35 10 -16 0 -35 7 -44 15
-8 8 -28 15 -45 15 -16 0 -34 6 -38 14 -4 7 -24 16 -43 19 -19 2 -60 14 -90
26 -30 11 -64 21 -76 21 -12 0 -24 7 -28 15 -3 8 -17 15 -31 15 -14 0 -28 7
-31 15 -4 8 -14 15 -23 15 -9 0 -26 8 -39 18 -21 16 -22 21 -12 72 6 30 15 59
20 64 6 6 10 18 10 27 0 9 7 30 15 45 8 16 15 37 15 46 0 9 5 20 10 23 6 3 10
15 10 25 0 10 7 25 15 34 8 8 15 26 15 39 0 14 7 30 15 37 8 7 15 21 15 31 0
11 4 19 10 19 5 0 12 11 16 25 3 14 10 25 15 25 5 0 9 11 9 25 0 14 7 28 15
31 8 4 15 17 15 30 0 13 3 24 8 24 4 0 18 23 31 50 13 28 28 50 32 50 5 0 9 9
9 20 0 11 7 23 15 26 8 4 15 14 15 24 0 10 3 20 8 22 4 2 18 24 32 51 13 26
28 47 32 47 5 0 8 9 8 19 0 10 7 21 15 25 8 3 15 15 15 26 0 11 5 20 10 20 6
0 10 7 10 15 0 9 7 18 15 21 8 4 15 13 15 20 0 8 9 24 20 36 24 27 60 93 60
113 0 8 6 15 13 15 6 0 21 18 31 40 11 22 23 40 28 40 4 0 8 7 8 15 0 9 7 18
15 21 8 4 15 14 15 24 0 10 7 23 15 30 8 7 15 17 15 22 0 6 11 23 25 40 14 16
25 38 25 49 0 10 7 19 15 19 8 0 15 9 15 20 0 12 11 33 25 48 14 15 25 34 25
43 0 9 7 22 15 29 8 7 15 18 15 25 0 7 7 18 15 25 8 7 15 21 15 31 0 11 3 19
8 19 4 0 15 13 26 28 21 31 53 33 113 6 17 -8 40 -14 52 -14 12 0 21 -4 21
-10 0 -5 20 -10 45 -10 31 0 47 -5 51 -15 4 -10 20 -15 44 -15 24 0 40 -5 44
-15 3 -9 19 -15 41 -15 19 0 35 -4 35 -10 0 -5 18 -10 39 -10 30 0 44 6 55 22
28 39 20 71 -26 111 -23 20 -48 37 -55 37 -7 0 -13 5 -13 10 0 6 -8 10 -19 10
-10 0 -24 7 -31 15 -7 8 -26 15 -42 15 -16 0 -36 7 -44 15 -9 8 -25 15 -37 15
-24 1 -123 33 -134 44 -3 3 -19 6 -35 6 -22 0 -28 5 -28 21 0 37 17 57 45 51
14 -2 28 -8 31 -13 3 -5 20 -9 39 -9 18 0 40 -7 49 -15 8 -8 26 -15 39 -15 14
0 38 -7 53 -15 16 -8 46 -15 67 -15 20 0 37 -4 37 -10 0 -5 24 -10 54 -10 50
0 54 2 66 31 17 40 3 102 -24 107 -11 2 -26 10 -34 18 -7 8 -22 14 -33 14 -10
0 -19 4 -19 10 0 5 -18 13 -40 16 -22 4 -43 11 -46 15 -3 5 -21 9 -40 9 -22 0
-37 6 -40 15 -4 11 -21 15 -55 15 -35 0 -51 4 -55 15 -4 8 -15 15 -25 15 -15
0 -19 7 -19 34 0 19 5 36 11 38 6 2 15 21 20 43 26 122 32 145 40 145 5 0 9
18 9 39 0 22 7 46 15 55 8 8 15 32 15 55 0 23 4 41 9 41 11 0 31 73 38 140 3
25 11 49 19 53 8 4 14 22 14 40 1 18 7 43 15 57 8 14 14 39 15 57 0 17 4 34 9
37 4 3 11 28 15 56 4 27 11 50 16 50 6 0 10 17 10 39 0 22 6 44 15 51 9 8 15
29 15 55 0 24 5 45 11 47 12 4 28 67 36 141 3 28 11 51 19 54 9 3 14 21 14 53
0 33 5 50 15 54 11 4 15 20 15 56 0 27 4 50 9 50 5 0 12 20 15 45 4 25 11 45
17 45 5 0 9 20 9 44 0 26 6 48 15 56 8 7 15 18 15 25 0 7 7 26 15 41 8 16 15
37 15 47 0 9 5 17 10 17 6 0 10 7 10 15 0 9 7 18 15 21 8 4 15 14 15 23 0 38
150 211 183 211 9 0 17 5 19 11 9 26 76 37 231 38 99 1 157 -3 157 -9z m-6485
-1747 c28 -3 64 -11 82 -19 17 -8 47 -14 67 -14 20 0 36 -4 36 -10 0 -6 27
-10 60 -10 41 0 61 -4 67 -14 5 -9 28 -16 58 -18 37 -2 51 -7 53 -20 3 -15
-15 -17 -182 -20 -135 -2 -189 -7 -198 -16 -8 -8 -13 -38 -13 -80 1 -55 -3
-70 -20 -84 -11 -10 -25 -17 -31 -18 -6 0 -23 -11 -38 -25 -15 -14 -36 -25
-47 -25 -10 0 -19 -4 -19 -8 0 -9 -69 -42 -87 -42 -6 0 -13 -7 -17 -15 -3 -8
-14 -15 -25 -15 -10 0 -21 -7 -25 -15 -3 -8 -12 -15 -21 -15 -8 0 -15 -4 -15
-10 0 -5 -9 -10 -19 -10 -11 0 -26 -7 -35 -15 -8 -8 -22 -15 -31 -15 -8 0 -18
-7 -21 -15 -4 -8 -16 -15 -29 -15 -12 0 -28 -7 -35 -15 -7 -8 -21 -15 -31 -15
-11 0 -19 -4 -19 -10 0 -5 -8 -10 -19 -10 -10 0 -24 -7 -31 -15 -7 -8 -23 -15
-36 -15 -15 0 -24 -6 -24 -15 0 -9 -9 -15 -25 -15 -14 0 -25 -4 -25 -10 0 -5
-8 -10 -17 -10 -10 0 -31 -7 -47 -15 -15 -8 -48 -15 -71 -15 -29 0 -45 -5 -49
-15 -3 -9 -19 -15 -41 -15 -20 0 -43 7 -51 15 -11 11 -38 15 -99 15 -46 0 -86
4 -90 9 -3 5 -31 12 -63 16 -31 3 -65 10 -74 15 -10 6 -31 10 -48 10 -18 0
-33 6 -36 15 -4 8 -18 15 -33 15 -31 0 -81 21 -81 33 0 5 9 11 20 14 11 3 20
9 20 14 0 5 10 9 23 9 13 0 32 7 43 15 10 8 26 15 35 15 9 0 22 7 29 15 7 8
23 15 36 15 13 0 24 5 24 10 0 6 8 10 18 10 9 0 30 7 46 15 15 8 33 15 38 15
5 0 16 7 24 15 9 8 24 15 35 15 10 0 19 4 19 9 0 5 10 13 23 16 43 13 97 39
97 47 0 4 15 8 34 8 21 0 36 6 40 15 3 8 12 15 20 15 8 0 36 11 62 25 26 14
53 25 59 25 7 0 18 7 25 15 7 8 23 15 35 15 13 0 36 7 51 15 16 8 37 15 46 15
9 0 20 5 23 10 3 6 17 10 31 10 14 0 27 7 30 15 4 9 19 15 39 15 19 0 36 4 40
9 3 5 19 12 36 16 17 4 49 18 72 31 23 13 52 24 65 24 13 0 22 6 22 15 0 9 9
15 23 15 13 0 28 5 33 10 23 23 100 59 114 53 8 -3 38 -8 65 -10z m-2153 -774
c27 -14 201 -15 206 0 4 13 218 16 226 2 3 -4 40 -11 83 -15 43 -3 80 -11 81
-16 2 -6 26 -10 53 -10 35 0 51 -4 55 -15 4 -10 20 -15 49 -15 23 0 56 -7 71
-15 16 -8 48 -15 71 -15 23 0 45 -4 48 -10 3 -5 35 -10 71 -10 48 0 66 -4 70
-15 5 -11 21 -15 61 -15 60 0 93 -13 93 -35 0 -8 5 -15 10 -15 6 0 10 -14 10
-30 0 -17 7 -44 16 -61 19 -38 16 -129 -6 -139 -8 -4 -33 -16 -55 -26 -41 -20
-85 -58 -85 -75 0 -5 -8 -18 -17 -28 -54 -58 -63 -70 -63 -85 0 -9 -6 -16 -14
-16 -7 0 -19 -14 -27 -32 -7 -17 -24 -43 -38 -58 -14 -15 -34 -40 -43 -56 -22
-39 -113 -94 -155 -94 -14 0 -23 -6 -23 -15 0 -9 -9 -15 -24 -15 -22 0 -25 -5
-30 -52 -3 -29 -5 -179 -3 -333 l2 -280 -29 -32 c-16 -18 -38 -33 -48 -33 -10
0 -18 -4 -18 -9 0 -5 -19 -12 -42 -16 -24 -4 -46 -13 -50 -19 -6 -8 -12 -8
-25 0 -16 10 -18 33 -21 225 -2 176 -5 215 -17 222 -11 6 -15 28 -15 92 0 46
-4 87 -10 90 -5 3 -10 24 -10 46 0 22 -7 56 -15 75 -16 39 -7 74 20 74 8 0 15
5 15 10 0 6 8 13 18 17 47 15 92 38 92 45 0 4 9 8 19 8 10 0 21 7 25 15 3 8
12 15 20 15 7 0 16 7 20 15 3 8 12 15 20 15 16 0 86 69 86 86 0 6 7 17 15 24
11 9 15 35 15 105 0 70 -4 96 -15 105 -8 7 -15 19 -15 28 0 16 -45 62 -61 62
-6 0 -17 7 -25 15 -9 8 -24 15 -34 15 -10 0 -22 4 -25 10 -3 5 -28 12 -56 16
-27 4 -52 11 -55 15 -7 12 -444 12 -444 0 0 -5 -25 -13 -55 -16 -30 -4 -58
-11 -61 -16 -3 -5 -15 -9 -28 -9 -12 0 -31 -7 -42 -15 -10 -8 -33 -15 -50 -15
-19 0 -34 -6 -38 -15 -3 -8 -16 -15 -29 -15 -14 0 -30 -7 -37 -15 -7 -8 -21
-15 -31 -15 -11 0 -19 -4 -19 -10 0 -5 -8 -10 -19 -10 -10 0 -24 -7 -31 -15
-7 -8 -21 -15 -32 -15 -11 0 -26 -7 -34 -15 -9 -8 -25 -15 -38 -15 -12 0 -27
-5 -32 -10 -8 -8 -19 -8 -36 0 -19 9 -24 18 -20 36 2 13 10 29 18 35 8 6 14
16 14 21 0 6 18 32 40 58 22 26 40 52 40 56 0 12 117 124 129 124 6 0 27 16
48 36 21 19 47 40 58 45 33 15 60 33 68 47 4 6 18 12 30 12 12 0 29 5 37 10
20 13 97 13 122 -1z m1558 -222 c0 -75 4 -108 15 -123 9 -12 14 -43 15 -87 0
-47 5 -73 15 -83 10 -10 15 -35 15 -74 0 -32 5 -62 10 -65 6 -4 10 -88 10
-221 0 -136 -4 -214 -10 -214 -5 0 -10 -6 -10 -14 0 -14 -41 -46 -60 -46 -7 0
-10 90 -10 268 -1 149 -5 287 -11 312 -6 25 -14 77 -17 117 -4 40 -13 78 -19
85 -7 6 -13 33 -13 59 0 32 -5 49 -15 53 -9 3 -15 18 -15 38 0 33 11 44 63 64
9 3 17 13 17 20 0 8 5 14 10 14 6 0 10 -41 10 -103z m-1920 -677 c0 -127 4
-210 10 -210 5 0 12 -16 16 -35 3 -19 10 -35 15 -35 5 0 9 -9 9 -20 0 -11 7
-23 15 -26 8 -4 15 -14 15 -24 0 -11 5 -22 10 -25 17 -11 11 -35 -9 -35 -11 0
-23 -4 -26 -10 -9 -14 -48 -13 -63 2 -7 7 -12 31 -12 54 0 25 -6 47 -15 54
-11 9 -15 33 -15 84 0 40 -5 77 -11 83 -11 11 -7 222 6 283 7 33 31 68 48 69
4 1 7 -93 7 -209z m8579 130 c12 0 24 -7 27 -15 4 -8 15 -15 25 -15 11 0 22
-7 25 -15 4 -8 15 -15 25 -15 10 0 19 -4 19 -10 0 -5 7 -10 15 -10 9 0 18 -7
21 -15 4 -8 14 -15 24 -15 10 0 25 -7 34 -15 8 -8 22 -15 30 -15 9 0 16 -4 16
-9 0 -5 11 -12 25 -15 14 -4 25 -11 25 -16 0 -6 11 -10 25 -10 14 0 28 -6 31
-14 3 -7 24 -21 47 -31 23 -9 50 -21 59 -26 10 -5 24 -9 32 -9 7 0 19 -7 26
-15 7 -8 21 -15 31 -15 11 0 19 -4 19 -10 0 -16 -67 -12 -84 5 -8 8 -21 15
-30 15 -8 0 -18 5 -21 10 -3 6 -17 10 -30 10 -13 0 -30 7 -39 15 -8 8 -23 15
-34 15 -11 0 -25 7 -32 15 -7 8 -21 15 -30 15 -10 0 -20 3 -22 8 -4 10 -75 42
-93 42 -8 0 -15 7 -15 15 0 9 -9 15 -21 15 -11 0 -27 7 -35 15 -9 8 -24 15
-35 15 -10 0 -19 5 -19 10 0 6 -9 10 -20 10 -10 0 -23 6 -27 13 -4 7 -25 21
-45 32 -44 22 -44 22 -21 47 15 16 18 17 33 3 9 -8 26 -15 39 -15z m-115 -235
c3 -8 15 -15 26 -15 11 0 20 -4 20 -10 0 -5 7 -10 15 -10 9 0 18 -7 21 -15 4
-8 14 -15 24 -15 10 0 25 -7 34 -15 8 -8 22 -15 30 -15 9 0 16 -4 16 -9 0 -5
11 -12 25 -15 14 -4 25 -11 25 -16 0 -6 11 -10 25 -10 14 0 28 -7 31 -15 4 -8
17 -15 30 -15 13 0 24 -4 24 -10 0 -5 12 -13 28 -16 15 -4 32 -10 37 -14 6 -4
29 -11 53 -15 23 -4 42 -11 42 -16 0 -5 21 -9 46 -9 42 0 45 -2 39 -21 -10
-29 -105 -138 -105 -120 0 6 -14 11 -30 11 -18 0 -33 6 -36 15 -4 8 -18 15
-34 15 -15 0 -33 7 -40 15 -7 8 -21 15 -31 15 -10 0 -21 5 -24 10 -3 6 -17 10
-31 10 -14 0 -27 7 -30 15 -4 8 -12 15 -19 15 -7 0 -33 11 -56 25 -24 14 -52
25 -62 25 -10 0 -20 7 -23 15 -4 8 -14 15 -24 15 -10 0 -25 7 -34 15 -8 8 -19
15 -24 15 -24 0 -108 55 -116 76 -6 14 14 64 36 92 15 18 84 16 92 -3z m-190
-300 c3 -8 15 -15 26 -15 11 0 20 -4 20 -10 0 -5 7 -10 15 -10 9 0 18 -7 21
-15 4 -8 14 -15 24 -15 20 0 77 -27 85 -41 4 -5 14 -9 24 -9 10 0 24 -7 31
-15 7 -8 21 -15 31 -15 10 0 22 -6 26 -13 4 -7 34 -21 65 -31 32 -10 60 -22
64 -27 3 -5 23 -9 45 -9 26 0 42 -5 45 -15 4 -9 19 -15 40 -15 37 0 43 -14 19
-46 -8 -10 -15 -25 -15 -32 0 -7 -7 -20 -15 -28 -8 -9 -15 -24 -15 -34 0 -10
-7 -20 -15 -24 -8 -3 -15 -13 -15 -23 0 -22 -42 -52 -48 -34 -2 6 -15 11 -28
11 -13 0 -24 5 -24 10 0 6 9 10 20 10 11 0 23 7 26 15 4 8 12 15 20 15 9 0 14
12 14 35 0 28 -6 37 -28 49 -15 8 -36 23 -46 35 -11 12 -30 21 -43 21 -14 0
-23 6 -23 15 0 9 -9 15 -24 15 -13 0 -26 3 -28 8 -5 10 -67 42 -84 42 -8 0
-17 7 -20 15 -4 8 -15 15 -25 15 -11 0 -29 9 -41 20 -27 24 -93 60 -113 60 -8
0 -15 6 -15 13 0 7 -18 20 -40 30 -44 19 -49 31 -22 46 25 15 59 13 66 -4z
m-4306 -77 c6 -6 49 -13 94 -16 46 -2 88 -8 93 -12 6 -4 52 -11 103 -15 50 -4
92 -11 92 -16 0 -5 51 -9 114 -9 89 0 116 -3 126 -15 9 -11 34 -15 95 -15 46
0 85 -4 87 -10 2 -5 45 -12 96 -16 50 -4 92 -11 92 -15 0 -5 41 -9 91 -9 67 0
94 -4 105 -15 11 -11 38 -15 98 -15 49 0 87 -5 94 -12 6 -6 57 -13 119 -16 59
-2 113 -8 119 -13 6 -5 70 -12 143 -15 72 -4 134 -11 137 -16 3 -4 55 -8 115
-8 85 0 114 -3 125 -15 12 -11 40 -15 114 -15 54 0 101 -4 104 -9 3 -5 52 -12
108 -16 57 -4 109 -12 116 -17 17 -14 15 -79 -3 -102 -8 -11 -15 -35 -15 -53
0 -18 -4 -41 -10 -51 -5 -9 -17 -34 -26 -54 -10 -23 -23 -38 -34 -38 -10 0
-23 -7 -30 -15 -7 -8 -23 -15 -36 -15 -13 0 -24 -4 -24 -10 0 -5 -20 -18 -44
-29 -43 -20 -82 -48 -114 -83 -9 -10 -22 -18 -29 -18 -17 0 -210 -194 -218
-219 -10 -33 -25 -25 -25 13 0 19 -4 38 -10 41 -5 3 -10 32 -10 63 0 31 -7 70
-15 86 -8 15 -15 41 -15 57 0 16 -4 29 -9 29 -5 0 -14 12 -20 28 -11 28 -28
57 -46 78 -5 7 -21 26 -35 43 -14 17 -29 31 -35 31 -5 0 -29 18 -53 40 -26 25
-53 40 -68 40 -14 0 -32 7 -40 15 -11 11 -37 15 -90 15 -54 0 -80 -4 -90 -15
-9 -8 -26 -15 -39 -15 -12 0 -25 -7 -29 -15 -3 -8 -15 -15 -26 -15 -11 0 -20
-4 -20 -10 0 -5 -7 -10 -15 -10 -18 0 -28 -8 -88 -66 -83 -82 -114 -119 -121
-146 -3 -16 -11 -28 -16 -28 -6 0 -10 -13 -10 -29 0 -16 -7 -36 -15 -45 -10
-9 -15 -34 -15 -69 0 -31 -5 -57 -11 -59 -7 -2 -13 -74 -16 -213 -3 -116 -10
-211 -14 -213 -5 -2 -9 -35 -9 -72 0 -60 -3 -71 -21 -80 -13 -7 -24 -8 -32 -2
-7 5 -36 13 -64 17 -29 4 -53 11 -53 16 0 5 -23 9 -50 9 -36 0 -52 4 -56 15
-4 10 -20 15 -44 15 -21 0 -54 7 -73 15 -20 8 -48 15 -62 15 -14 0 -25 5 -25
10 0 6 -24 10 -54 10 -35 0 -58 5 -66 15 -7 9 -29 15 -54 15 -23 0 -47 5 -52
10 -6 6 -42 13 -80 17 -38 3 -71 10 -74 14 -3 4 -51 11 -108 15 -56 4 -102 11
-102 15 0 5 -25 9 -56 9 -79 0 -83 8 -84 158 0 68 4 131 9 140 5 10 12 170 16
357 4 187 12 342 16 343 5 2 9 32 9 66 0 39 5 69 15 82 8 10 15 33 15 51 0 35
16 78 38 106 17 20 82 23 100 5z m4082 -298 c0 -5 8 -10 18 -10 10 0 27 -7 38
-15 10 -8 26 -15 35 -15 9 0 22 -7 29 -15 7 -8 25 -15 41 -15 16 0 29 -4 29
-8 0 -10 71 -42 94 -42 9 0 19 -7 22 -15 4 -8 17 -15 29 -15 13 0 27 -4 30
-10 11 -18 -160 -13 -175 5 -8 9 -29 15 -55 15 -24 0 -56 7 -71 15 -16 8 -39
15 -52 15 -12 0 -30 4 -40 9 -9 5 -25 12 -35 15 -15 5 -17 12 -12 38 4 18 12
39 17 46 12 14 58 16 58 2z m190 -325 c0 -11 13 -15 55 -15 35 0 57 -5 62 -14
4 -7 24 -16 43 -19 54 -8 93 -21 118 -37 25 -17 30 -60 7 -60 -9 0 -15 -9 -15
-23 0 -13 -9 -32 -20 -42 -11 -10 -22 -27 -26 -39 -4 -11 -13 -28 -20 -36 -29
-31 -94 -125 -94 -135 0 -29 -70 -59 -84 -36 -3 5 -31 12 -61 16 -30 3 -55 11
-55 16 0 5 -20 9 -44 9 -26 0 -48 6 -56 15 -7 8 -25 15 -40 15 -15 0 -41 7
-56 15 -16 8 -41 15 -56 15 -15 0 -30 5 -33 10 -3 6 -24 10 -46 10 -26 0 -42
5 -45 15 -4 9 -19 15 -39 15 -20 0 -35 6 -39 15 -3 8 -15 15 -26 15 -13 0 -20
7 -20 20 0 17 7 20 43 20 48 0 119 -22 125 -39 2 -6 19 -11 37 -11 20 0 35 -6
39 -15 3 -8 15 -15 26 -15 11 0 20 -4 20 -10 0 -5 16 -12 35 -16 19 -3 35 -10
35 -15 0 -5 16 -9 35 -9 22 0 38 -6 41 -15 4 -9 19 -15 39 -15 19 0 36 -4 40
-9 7 -12 107 -25 132 -17 32 10 63 45 63 71 0 37 -21 75 -42 75 -10 0 -18 4
-18 9 0 5 -13 12 -30 16 -16 4 -30 11 -30 16 0 5 -11 9 -25 9 -14 0 -28 7 -31
15 -4 9 -19 15 -36 15 -16 0 -36 7 -44 15 -9 8 -24 15 -34 15 -10 0 -22 5 -25
10 -3 6 -20 10 -36 10 -17 0 -32 6 -35 15 -4 8 -16 15 -29 15 -12 0 -28 7 -35
15 -7 8 -25 15 -41 15 -16 0 -29 4 -29 9 0 5 -10 11 -22 13 -15 2 -24 11 -26
26 -4 25 15 30 24 7 4 -8 14 -15 24 -15 11 0 21 -4 25 -9 3 -5 19 -12 35 -16
17 -4 30 -11 30 -16 0 -5 13 -9 29 -9 16 0 34 -7 41 -15 7 -8 19 -15 27 -15 8
0 21 -7 29 -15 9 -8 24 -15 34 -15 10 0 22 -4 25 -10 3 -5 22 -10 41 -10 22 0
37 -6 40 -15 5 -12 30 -15 134 -15 l128 0 5 29 c3 15 3 41 -1 56 -8 29 -46 47
-124 60 -21 4 -38 11 -38 16 0 5 -17 9 -39 9 -22 0 -44 6 -51 15 -7 8 -25 15
-41 15 -15 0 -31 5 -34 10 -4 6 15 10 49 10 43 0 56 -3 56 -15z m-1414 -140
c16 -8 39 -15 52 -15 12 0 22 -4 22 -10 0 -5 20 -10 45 -10 31 0 47 -5 51 -15
4 -9 19 -15 39 -15 18 0 38 -7 45 -15 7 -8 25 -15 40 -15 15 0 41 -7 56 -15
16 -8 37 -15 46 -15 9 0 20 -4 23 -10 3 -5 13 -10 20 -10 23 0 55 -32 55 -54
0 -20 6 -42 34 -132 9 -29 16 -67 16 -87 0 -22 6 -37 15 -41 12 -4 15 -27 15
-116 0 -89 -3 -112 -15 -116 -9 -4 -15 -19 -15 -39 0 -18 -4 -35 -10 -37 -5
-1 -18 -28 -29 -58 -11 -30 -24 -56 -30 -58 -6 -2 -11 -10 -11 -18 0 -8 -11
-27 -25 -42 -14 -15 -25 -35 -25 -44 0 -10 -7 -18 -15 -18 -8 0 -15 -5 -15
-11 0 -11 -65 -85 -109 -123 -13 -12 -31 -29 -40 -38 -8 -10 -21 -18 -28 -18
-7 0 -13 -7 -13 -15 0 -8 -8 -15 -18 -15 -9 0 -29 -11 -44 -25 -24 -22 -36
-25 -100 -25 -61 0 -75 3 -85 19 -12 19 4 45 63 105 11 12 23 29 27 39 3 9 11
17 17 17 5 0 10 7 10 15 0 8 7 15 15 15 8 0 15 7 15 15 0 8 4 15 10 15 5 0 12
11 16 25 3 14 10 25 15 25 5 0 9 7 9 15 0 9 7 18 15 21 9 4 15 19 15 38 0 17
7 40 15 50 23 30 21 223 -2 276 -10 22 -24 40 -31 40 -7 0 -15 7 -18 15 -4 8
-15 15 -25 15 -10 0 -19 3 -19 8 0 12 -60 42 -85 42 -12 0 -28 7 -35 15 -10
12 -36 15 -115 15 -79 0 -105 -3 -115 -15 -7 -8 -27 -15 -45 -15 -18 0 -38 -7
-45 -15 -7 -8 -18 -15 -25 -15 -7 0 -24 -11 -39 -25 -15 -14 -33 -25 -39 -25
-7 0 -32 -18 -56 -40 -23 -22 -47 -40 -52 -40 -5 0 -9 -4 -9 -9 0 -5 -32 -41
-71 -80 -60 -60 -77 -71 -105 -71 -19 0 -34 5 -34 10 0 6 -6 10 -13 10 -8 0
-20 12 -27 28 -8 15 -21 35 -29 45 -12 15 -12 19 2 35 10 10 17 26 17 35 0 9
5 17 10 17 6 0 10 9 10 19 0 11 6 26 13 33 8 7 29 40 47 73 18 33 37 62 41 63
5 2 9 10 9 17 0 8 6 18 13 22 8 4 22 22 33 38 10 17 30 42 44 57 101 109 186
188 204 188 8 0 16 7 20 15 3 8 12 15 20 15 7 0 16 7 20 15 3 8 17 15 31 15
14 0 25 5 25 10 0 6 8 10 18 10 9 1 28 7 42 15 35 20 188 20 226 0z m864 -460
c14 -8 46 -14 72 -15 26 0 49 -4 52 -9 3 -5 33 -12 66 -16 33 -4 60 -11 60
-16 0 -5 24 -9 54 -9 35 0 58 -5 66 -15 8 -9 29 -15 56 -15 23 0 46 -4 49 -10
3 -5 19 -10 34 -10 16 0 37 -10 51 -25 22 -23 23 -30 17 -131 -3 -58 -10 -111
-16 -117 -6 -6 -11 -25 -11 -43 0 -17 -6 -37 -13 -43 -8 -6 -20 -29 -27 -51
-7 -22 -19 -45 -27 -51 -7 -6 -13 -20 -13 -30 0 -10 -6 -22 -13 -26 -7 -4 -26
-29 -42 -55 -17 -27 -36 -48 -42 -48 -7 0 -13 -6 -13 -13 0 -8 -32 -44 -71
-80 -51 -47 -79 -67 -98 -67 -14 0 -39 -7 -55 -15 -23 -12 -78 -15 -292 -15
-177 0 -264 3 -264 10 0 6 26 35 58 65 l57 55 78 0 c60 0 79 -3 83 -15 5 -12
28 -15 116 -15 105 0 110 1 133 26 27 29 30 45 15 75 -7 13 -21 19 -45 19 -18
0 -35 4 -37 10 -1 5 -44 12 -94 16 -50 4 -99 13 -109 20 -17 13 -17 15 -2 32
9 10 17 24 17 30 0 15 46 16 55 2 3 -5 28 -10 56 -10 37 0 49 -4 49 -15 0 -11
13 -15 54 -15 39 0 55 -4 60 -15 4 -11 21 -15 59 -15 36 0 59 5 67 15 7 8 23
15 36 15 14 0 24 6 24 14 0 8 7 16 15 20 20 7 19 23 -5 54 -22 27 -66 46 -132
57 -21 4 -40 11 -44 16 -3 5 -20 9 -38 9 -19 0 -39 7 -46 15 -7 8 -21 15 -31
15 -10 0 -21 5 -24 10 -10 16 52 12 69 -5 9 -10 34 -15 69 -15 40 0 56 -4 61
-15 4 -11 21 -15 60 -15 35 0 60 5 70 15 8 8 24 15 35 15 18 0 21 6 21 40 0
50 -33 84 -98 101 -23 6 -45 15 -48 20 -3 5 -18 9 -33 9 -16 0 -34 7 -41 15
-7 8 -18 15 -25 15 -7 0 -26 7 -41 15 -16 8 -37 15 -46 15 -9 0 -20 5 -23 10
-3 6 -13 10 -22 10 -9 0 -29 13 -44 30 -27 27 -29 36 -29 105 0 82 8 90 60 60z
m-920 -230 c0 -14 -4 -25 -10 -25 -5 0 -10 -16 -10 -35 0 -22 -6 -38 -15 -41
-8 -4 -15 -15 -15 -26 0 -10 -11 -31 -25 -46 -14 -15 -25 -33 -25 -40 0 -7 -7
-15 -15 -18 -8 -4 -15 -10 -15 -14 0 -12 -59 -70 -71 -70 -5 0 -34 -24 -64
-54 l-55 -53 0 -72 c0 -67 3 -76 35 -119 57 -75 89 -112 100 -112 13 -1 55
-36 55 -47 0 -4 18 -16 40 -26 22 -9 40 -21 40 -27 0 -5 11 -10 25 -10 14 0
28 -7 31 -15 4 -8 16 -15 28 -15 11 -1 32 -7 46 -15 14 -8 45 -14 71 -15 25 0
50 -5 56 -11 8 -8 117 -14 355 -18 189 -3 333 -7 320 -9 -13 -2 -26 -10 -29
-18 -3 -8 -13 -14 -22 -14 -35 0 -91 -83 -91 -135 0 -22 -6 -38 -15 -41 -12
-5 -15 -26 -15 -103 0 -70 -4 -103 -15 -117 -20 -27 -20 -150 0 -170 11 -12
15 -40 15 -115 0 -79 3 -101 15 -105 11 -5 15 -21 15 -60 0 -30 4 -54 9 -54 4
0 11 -32 14 -72 3 -39 11 -76 17 -82 5 -5 10 -29 10 -52 0 -25 6 -47 15 -54 8
-7 15 -19 15 -26 0 -8 4 -14 10 -14 5 0 17 -16 26 -36 9 -20 23 -38 31 -41 7
-3 13 -13 13 -23 0 -10 7 -20 15 -24 8 -3 15 -10 15 -16 0 -6 11 -21 25 -34
14 -13 25 -30 25 -39 0 -8 7 -17 15 -21 8 -3 15 -12 15 -20 0 -7 7 -16 15 -20
8 -3 15 -11 15 -19 0 -7 11 -24 25 -37 14 -13 25 -29 25 -37 0 -7 6 -13 13
-14 6 0 25 -16 40 -35 l29 -34 -25 0 c-14 0 -29 5 -32 10 -3 6 -33 10 -66 10
-44 0 -61 4 -65 15 -4 10 -21 15 -53 15 -25 1 -57 7 -71 15 -14 8 -46 14 -72
15 -26 0 -49 4 -52 9 -3 5 -31 12 -61 16 -30 3 -55 11 -55 16 0 5 -26 9 -59 9
-40 0 -63 5 -71 15 -7 8 -29 15 -50 15 -21 0 -51 7 -66 15 -16 8 -50 15 -76
15 -26 0 -50 5 -53 10 -3 6 -32 10 -64 10 -40 0 -63 5 -71 15 -8 10 -30 15
-65 15 -29 0 -66 7 -81 15 -18 9 -57 15 -101 15 -39 0 -74 4 -77 9 -3 4 -28
11 -56 15 -27 4 -50 11 -50 16 0 6 -9 10 -20 10 -21 0 -190 158 -190 178 0 6
-7 12 -15 12 -8 0 -15 8 -15 19 0 10 -11 30 -25 45 -14 15 -25 33 -25 40 0 8
-7 16 -15 20 -9 3 -15 18 -15 36 0 16 -4 30 -10 30 -5 0 -10 11 -10 25 0 14
-7 42 -15 62 -8 19 -15 50 -15 68 0 18 -7 38 -15 45 -10 9 -15 32 -15 76 0 35
-4 64 -9 64 -5 0 -12 35 -16 78 -4 42 -12 82 -17 89 -5 6 -7 86 -5 185 4 174
20 310 38 316 5 2 9 26 9 53 0 35 4 51 15 55 8 4 15 16 15 28 0 11 11 44 25
71 13 28 25 58 25 68 0 10 7 20 15 23 12 5 15 25 15 89 0 64 -3 84 -15 89 -9
3 -15 18 -15 39 0 32 2 35 40 41 22 3 40 11 40 16 0 6 14 10 30 10 21 0 40 10
60 30 16 17 31 30 34 30 9 0 66 62 66 71 0 5 4 9 9 9 4 0 37 29 73 65 36 36
73 65 82 65 9 0 19 7 22 15 4 8 14 15 24 15 10 0 23 7 30 15 7 8 24 15 39 15
14 0 33 5 41 10 28 18 50 12 50 -15z m-2760 -64 c0 -5 41 -12 90 -16 50 -4 90
-11 90 -16 0 -5 27 -9 59 -9 40 0 65 -5 75 -15 9 -10 34 -15 70 -15 31 0 56
-4 56 -10 0 -5 18 -13 40 -16 22 -4 43 -11 46 -15 3 -5 25 -9 50 -9 30 0 46
-5 50 -15 4 -10 20 -15 45 -15 26 0 42 -5 45 -15 4 -9 19 -15 40 -15 19 0 34
-4 34 -9 0 -5 16 -12 35 -15 19 -4 35 -11 35 -16 0 -6 9 -10 20 -10 19 0 19 0
-1 -40 -12 -22 -24 -40 -28 -40 -3 0 -15 -17 -26 -37 -11 -21 -30 -49 -42 -63
-13 -14 -23 -32 -23 -41 0 -9 -7 -19 -15 -23 -8 -3 -15 -12 -15 -19 0 -8 -11
-35 -25 -61 -14 -26 -25 -60 -25 -77 0 -19 -5 -29 -15 -29 -11 0 -15 -11 -15
-39 0 -22 -5 -41 -11 -43 -6 -2 -13 -26 -16 -53 -3 -28 -11 -56 -17 -64 -16
-21 -15 -346 2 -362 6 -7 12 -27 12 -43 0 -17 7 -44 15 -60 8 -15 15 -41 15
-56 0 -16 7 -30 15 -34 8 -3 15 -11 15 -18 0 -7 36 -85 80 -172 44 -87 80
-164 80 -171 0 -7 7 -15 15 -19 8 -3 15 -11 15 -17 0 -10 36 -89 69 -149 34
-62 41 -80 32 -80 -5 0 -16 7 -25 15 -8 8 -32 15 -54 15 -23 0 -45 6 -52 15
-8 9 -30 15 -56 15 -24 0 -44 5 -44 10 0 6 -24 10 -54 10 -35 0 -58 5 -66 15
-9 11 -33 15 -90 15 -49 0 -88 5 -106 15 -16 8 -50 15 -76 15 -26 0 -49 4 -52
9 -3 5 -31 12 -61 16 -30 3 -55 11 -55 16 0 5 -20 9 -44 9 -26 0 -51 6 -60 15
-8 8 -26 15 -40 15 -15 0 -34 4 -44 9 -85 42 -112 57 -112 63 0 5 -6 8 -12 8
-16 1 -78 56 -78 70 0 5 -6 10 -12 10 -7 1 -26 19 -43 40 -16 21 -36 39 -42
40 -7 0 -13 7 -13 16 0 14 -18 36 -100 123 -14 14 -34 43 -45 64 -11 20 -23
37 -26 37 -8 0 -69 121 -69 137 0 6 -7 13 -15 17 -8 3 -15 13 -15 23 0 10 -12
41 -25 68 -14 28 -25 60 -25 71 0 12 -7 27 -15 34 -10 9 -15 32 -15 76 0 36
-4 64 -10 64 -6 0 -10 33 -10 79 0 44 5 83 10 86 6 3 10 35 10 69 0 44 5 67
15 76 8 7 15 23 15 35 0 13 7 36 15 51 8 16 15 37 15 47 0 9 5 17 10 17 6 0
10 11 10 25 0 15 6 25 14 25 8 0 17 11 20 24 3 14 22 45 41 70 19 26 35 50 35
54 0 14 165 182 178 182 7 0 12 5 12 10 0 6 55 10 145 10 80 0 145 -4 145 -9z
m-15 -1981 c3 -5 32 -10 65 -10 42 0 59 -4 64 -15 4 -11 22 -15 70 -15 45 0
65 -4 69 -14 3 -8 25 -16 54 -19 67 -7 143 -27 143 -38 0 -5 16 -9 35 -9 22 0
38 -6 41 -15 4 -9 19 -15 39 -15 20 0 35 -6 39 -15 3 -8 15 -15 26 -15 11 0
20 -4 20 -10 0 -5 14 -10 30 -10 18 0 33 -6 36 -15 4 -9 19 -15 39 -15 20 0
35 -6 39 -15 3 -9 18 -15 39 -15 18 0 39 -6 46 -12 8 -9 52 -13 150 -12 l137
0 12 -38 c7 -21 12 -77 12 -125 1 -57 6 -97 15 -113 11 -20 14 -75 15 -261 0
-201 2 -238 15 -243 13 -4 15 -37 15 -206 0 -169 -2 -202 -15 -206 -13 -5 -15
-42 -15 -241 0 -213 -2 -237 -17 -249 -21 -16 -83 -19 -83 -4 0 6 -11 10 -24
10 -14 0 -31 7 -40 15 -8 8 -29 15 -46 15 -18 0 -33 6 -36 15 -4 9 -19 15 -40
15 -19 0 -34 5 -34 10 0 6 -8 10 -18 10 -10 0 -27 7 -38 15 -10 8 -31 15 -45
15 -15 0 -32 7 -39 15 -7 8 -18 15 -25 15 -7 0 -26 7 -41 15 -16 8 -37 15 -46
15 -9 0 -20 5 -23 10 -3 6 -22 10 -41 10 -24 0 -34 5 -34 15 0 11 -11 15 -36
15 -19 0 -42 7 -50 15 -9 8 -31 15 -49 15 -19 0 -36 4 -39 9 -4 5 -40 12 -81
16 -41 4 -75 11 -75 16 0 5 -18 9 -40 9 -27 0 -43 5 -46 15 -4 9 -19 15 -40
15 -19 0 -34 4 -34 8 0 10 -71 42 -93 42 -10 0 -17 7 -17 15 0 8 -9 15 -20 15
-11 0 -29 8 -40 17 -19 17 -20 29 -20 351 0 286 2 333 15 338 13 5 15 44 15
268 0 215 3 266 15 282 11 14 14 52 15 162 l0 142 24 0 c14 0 28 -4 31 -10z
m5149 -436 c10 -10 16 -33 16 -65 0 -42 -3 -49 -19 -49 -11 0 -22 -4 -25 -9
-3 -4 -37 -11 -76 -13 -39 -3 -77 -11 -83 -17 -6 -6 -47 -11 -99 -11 -70 0
-90 -3 -94 -15 -5 -11 -24 -15 -79 -15 -41 0 -76 -4 -79 -9 -3 -5 -37 -12 -76
-16 -38 -4 -70 -11 -70 -16 0 -5 -27 -9 -60 -9 -33 0 -60 -4 -60 -9 0 -13 -27
-21 -45 -15 -17 7 -21 74 -5 74 6 0 10 11 10 25 0 20 5 25 25 25 14 0 25 5 25
10 0 6 15 10 33 10 17 0 45 7 61 15 15 8 45 15 66 15 21 0 43 7 50 15 8 10 31
15 71 15 33 0 59 4 59 9 0 5 32 12 70 16 39 4 73 11 76 16 3 5 31 9 62 9 31 0
68 7 82 14 36 20 144 20 164 0z m-2348 -79 c20 -10 60 -15 124 -15 63 -1 103
-5 120 -15 14 -8 39 -14 57 -15 17 0 35 -4 38 -10 3 -5 17 -10 31 -10 14 0 27
-7 30 -15 4 -8 18 -15 34 -15 16 0 35 -6 42 -14 8 -7 34 -16 59 -20 177 -23
219 -31 219 -38 0 -4 33 -8 74 -8 56 0 75 -4 80 -15 3 -9 18 -15 35 -15 16 0
42 -7 57 -15 16 -8 39 -15 51 -15 12 0 25 -4 28 -10 3 -5 19 -10 36 -10 19 0
29 -5 29 -15 0 -8 6 -15 13 -15 22 0 97 -77 97 -99 0 -11 5 -21 11 -23 6 -2
14 -27 17 -56 2 -29 9 -55 13 -58 12 -7 12 -191 0 -196 -5 -1 -12 -37 -16 -78
-4 -41 -11 -76 -16 -78 -5 -2 -9 -45 -9 -95 -1 -65 -5 -98 -15 -111 -13 -17
-15 -86 -15 -440 0 -301 -3 -429 -12 -453 l-12 -33 -78 0 c-45 0 -78 4 -78 10
0 6 -24 10 -54 10 -39 0 -55 4 -60 15 -3 9 -18 15 -38 15 -18 0 -42 7 -52 15
-11 8 -30 15 -43 15 -13 0 -23 5 -23 10 0 6 -18 10 -40 10 -27 0 -43 5 -46 15
-4 10 -20 15 -45 15 -26 0 -42 5 -45 15 -5 11 -22 15 -65 15 -32 0 -59 4 -59
9 0 5 -32 12 -70 16 -39 4 -73 11 -76 16 -3 5 -31 9 -63 9 -40 0 -63 5 -71 15
-8 10 -31 15 -70 15 -35 0 -60 5 -62 12 -2 6 -30 13 -61 16 -31 2 -57 8 -57
13 0 5 -27 9 -60 9 -47 0 -60 3 -60 15 0 9 -9 15 -22 15 -31 0 -58 28 -58 60
0 16 -7 30 -15 34 -13 5 -15 75 -15 551 0 476 2 546 15 551 13 5 15 40 15 227
l0 220 28 28 c25 27 32 28 113 29 58 0 96 -5 115 -15z m-2646 -1300 c0 -11 12
-15 49 -15 31 0 53 -5 61 -15 7 -8 25 -15 40 -15 15 0 41 -7 56 -15 16 -8 37
-15 47 -15 9 0 17 -4 17 -10 0 -5 11 -10 24 -10 13 0 39 -8 58 -17 60 -30 68
-33 83 -33 9 0 18 -7 21 -15 4 -8 17 -15 29 -15 13 0 30 -7 39 -15 8 -8 19
-15 25 -15 6 0 30 -11 53 -24 24 -13 55 -26 71 -30 15 -3 27 -11 27 -16 0 -6
11 -10 24 -10 13 0 29 -7 36 -15 7 -8 21 -15 31 -15 11 0 19 -4 19 -10 0 -5 9
-10 19 -10 11 0 26 -7 35 -15 8 -8 24 -15 36 -15 11 0 23 -6 26 -14 3 -8 18
-16 35 -20 38 -7 37 -21 -6 -75 -19 -24 -35 -48 -35 -54 0 -6 -18 -27 -40 -48
-22 -21 -40 -41 -40 -43 0 -3 -28 -32 -61 -63 -34 -32 -73 -70 -88 -84 -14
-15 -36 -29 -47 -33 -12 -4 -29 -15 -39 -26 -10 -11 -26 -20 -35 -20 -10 0
-20 -7 -24 -15 -4 -11 -22 -15 -69 -15 -45 0 -68 5 -77 15 -7 8 -18 15 -25 15
-7 0 -26 7 -41 15 -16 8 -37 15 -46 15 -9 0 -20 5 -23 10 -3 6 -22 10 -41 10
-24 0 -34 5 -34 15 0 11 -11 15 -39 15 -25 0 -41 5 -45 15 -3 9 -18 15 -40 15
-19 0 -37 4 -40 9 -3 4 -28 11 -56 15 -27 4 -50 11 -50 16 0 6 -24 10 -54 10
-39 0 -55 4 -60 15 -4 10 -20 15 -50 15 -24 0 -57 7 -72 15 -16 8 -48 15 -71
15 -24 0 -43 5 -43 10 0 6 -24 10 -54 10 -35 0 -60 5 -70 15 -8 8 -30 15 -49
15 -19 0 -48 7 -63 15 -16 8 -43 15 -61 15 -17 0 -34 4 -37 9 -3 4 -28 11 -56
15 -27 4 -50 11 -50 16 0 6 -11 10 -25 10 -32 0 -32 14 2 43 14 12 35 30 45
40 10 9 23 17 28 17 6 0 10 7 10 15 0 8 9 15 19 15 10 0 21 7 25 15 3 8 12 15
21 15 8 0 15 5 15 10 0 6 9 10 19 10 10 0 21 7 25 15 3 8 13 15 22 15 9 0 33
12 53 28 47 35 77 52 95 52 8 0 16 7 20 15 3 8 12 15 21 15 8 0 15 4 15 10 0
5 16 17 36 26 20 9 38 23 41 31 3 7 15 13 28 13 12 0 28 7 35 15 7 8 18 15 24
15 6 0 23 11 38 25 15 14 36 25 48 25 11 0 20 7 20 15 0 12 17 15 95 15 78 0
95 -3 95 -15z m1994 -171 c13 -35 7 -54 -19 -54 -14 0 -25 -4 -25 -9 0 -4 -25
-11 -56 -14 -31 -3 -62 -11 -67 -16 -6 -6 -38 -11 -71 -11 -34 -1 -72 -7 -86
-15 -14 -8 -52 -14 -87 -15 -34 0 -63 -4 -65 -8 -4 -13 -108 -23 -108 -12 0 6
8 10 18 10 9 0 30 7 46 15 15 8 37 15 47 15 10 0 20 4 23 9 4 5 25 12 49 16
23 4 47 10 52 13 27 17 114 41 146 42 23 0 39 6 43 15 3 9 18 15 38 15 18 0
40 5 48 10 24 15 67 12 74 -6z m2944 -431 c31 -31 44 -71 30 -93 -7 -11 -20
-20 -30 -20 -9 0 -20 -4 -23 -10 -3 -5 -14 -10 -24 -10 -10 0 -24 -7 -31 -15
-7 -8 -27 -15 -45 -15 -20 0 -35 -6 -39 -15 -4 -11 -21 -15 -61 -15 -30 0 -55
-4 -55 -9 0 -4 -32 -11 -71 -13 -39 -3 -76 -11 -82 -17 -6 -6 -43 -11 -83 -11
-55 0 -73 -4 -78 -15 -4 -12 -24 -15 -91 -15 -47 0 -85 -4 -85 -9 0 -9 -169
-26 -177 -17 -3 3 2 21 11 41 14 28 22 35 46 35 17 0 30 5 30 10 0 6 11 10 24
10 14 0 31 7 40 15 8 8 28 15 44 15 17 0 32 6 36 15 3 9 18 15 40 15 19 0 38
5 41 10 3 6 14 10 23 10 9 0 30 7 46 15 15 8 41 15 56 15 15 0 33 7 40 15 8 9
29 15 55 15 29 0 45 5 49 15 4 11 20 15 55 15 27 0 53 5 56 10 3 6 21 10 38
10 18 0 43 7 57 14 38 21 137 20 158 -1z m-2443 -23 c3 -5 28 -10 54 -10 31 0
53 -5 61 -15 9 -10 32 -15 77 -15 44 0 69 -5 79 -15 10 -10 35 -15 74 -15 32
0 61 -4 64 -9 3 -5 37 -12 76 -16 38 -4 70 -11 70 -16 0 -5 27 -9 60 -9 45 0
62 -4 66 -15 4 -9 19 -15 38 -15 17 0 40 -7 50 -15 11 -8 30 -15 42 -15 13 0
26 -4 29 -10 3 -5 21 -10 39 -10 19 0 39 -7 46 -15 7 -8 25 -15 41 -15 15 0
34 -7 43 -15 8 -8 28 -15 44 -15 16 0 36 -7 43 -16 11 -14 10 -20 -14 -40 -15
-13 -27 -28 -27 -34 0 -5 -4 -10 -9 -10 -5 0 -20 -17 -33 -37 -21 -36 -75 -99
-125 -148 -13 -12 -23 -30 -23 -39 0 -9 -7 -16 -15 -16 -8 0 -15 -4 -15 -9 0
-10 -64 -85 -109 -128 -21 -20 -34 -23 -102 -23 -44 0 -79 4 -79 9 0 5 -34 12
-75 16 -41 4 -75 11 -75 16 0 5 -26 9 -59 9 -40 0 -63 5 -71 15 -7 8 -27 15
-44 15 -18 0 -36 4 -42 10 -11 11 -80 28 -163 39 -30 4 -57 13 -59 19 -2 7
-26 12 -61 12 -31 0 -62 5 -68 11 -5 5 -36 13 -67 16 -31 3 -56 9 -56 13 0 4
-25 11 -55 15 -30 3 -55 11 -55 16 0 5 -17 9 -37 9 -21 1 -49 7 -63 15 -14 8
-40 14 -57 15 -18 0 -33 4 -33 8 0 9 -67 29 -127 39 -18 3 -38 11 -44 19 -6 8
-24 14 -39 14 -14 0 -30 3 -33 6 -6 7 35 44 49 44 4 0 21 10 38 23 17 12 51
32 76 44 25 12 55 31 67 42 12 12 31 21 43 21 11 0 20 7 20 15 0 8 9 15 20 15
11 0 20 3 20 8 0 8 26 23 73 42 15 7 27 16 27 21 0 5 9 9 19 9 10 0 21 7 25
15 3 8 12 15 21 15 8 0 15 5 15 10 0 6 9 10 20 10 11 0 20 4 20 9 0 5 10 13
22 17 12 3 28 13 36 20 7 8 22 14 32 14 10 0 22 5 25 10 3 6 42 10 85 10 43 0
82 -4 85 -10z m-3409 -50 c5 -5 30 -14 54 -19 105 -23 140 -33 140 -42 0 -5
20 -9 44 -9 26 0 51 -6 60 -15 8 -8 26 -15 39 -15 14 0 38 -7 53 -15 16 -8 43
-15 61 -15 17 0 35 -4 38 -10 3 -5 22 -10 41 -10 22 0 37 -6 40 -15 4 -10 20
-15 49 -15 26 0 47 -6 55 -15 7 -8 27 -15 46 -15 18 0 35 -4 38 -9 3 -5 26
-12 51 -15 24 -4 47 -11 50 -17 4 -5 21 -9 40 -9 18 0 40 -7 49 -15 8 -8 30
-15 48 -15 32 0 119 -28 134 -43 4 -4 18 -7 31 -7 14 0 23 -6 23 -15 0 -9 9
-15 23 -15 13 0 34 -11 47 -25 13 -14 29 -25 35 -25 7 0 40 -26 74 -59 l61
-58 0 -141 c0 -115 3 -141 15 -146 12 -4 15 -24 15 -86 0 -64 -3 -80 -15 -80
-12 0 -15 -14 -15 -65 0 -37 -4 -65 -10 -65 -5 0 -10 -7 -10 -15 0 -10 -10
-15 -30 -15 -18 0 -33 6 -36 15 -4 11 -21 15 -59 15 -29 0 -66 7 -81 15 -16 8
-50 15 -76 15 -26 0 -49 4 -52 9 -3 5 -35 12 -71 16 -36 3 -67 11 -70 16 -4 5
-33 9 -66 9 -44 0 -61 4 -65 15 -5 11 -22 15 -63 15 -31 1 -67 7 -81 15 -14 8
-39 14 -57 15 -17 0 -35 5 -38 10 -3 6 -29 10 -56 10 -35 0 -51 4 -55 15 -4
10 -21 15 -54 15 -33 0 -50 5 -54 15 -3 9 -18 15 -35 15 -16 0 -42 7 -57 15
-16 8 -37 15 -46 15 -9 0 -20 5 -23 10 -3 6 -22 10 -41 10 -19 0 -34 4 -34 10
0 5 -12 13 -27 16 -15 4 -38 13 -52 20 -14 8 -32 14 -39 14 -39 0 -42 21 -42
270 0 201 -2 244 -15 256 -19 20 -22 243 -3 262 15 15 60 16 74 2z m2648 -616
c20 -3 36 -10 36 -15 0 -5 15 -9 33 -9 17 -1 43 -7 57 -15 14 -8 39 -14 57
-15 17 0 34 -4 37 -9 3 -5 31 -12 61 -16 30 -3 55 -11 55 -16 0 -5 33 -9 74
-9 53 0 77 -4 86 -15 8 -10 30 -15 65 -15 29 0 66 -7 81 -15 16 -8 41 -15 56
-15 15 0 30 -4 33 -10 3 -5 24 -10 46 -10 26 0 42 -5 45 -15 4 -10 20 -15 49
-15 26 0 47 -6 55 -15 7 -8 27 -15 46 -15 18 0 35 -4 38 -9 3 -5 31 -12 61
-16 30 -3 55 -11 55 -16 0 -5 25 -9 55 -9 50 0 58 -3 85 -32 l29 -33 1 -397 0
-398 -49 0 c-28 0 -51 5 -53 11 -2 6 -27 14 -56 17 -29 2 -52 8 -52 12 0 4
-23 10 -52 13 -28 4 -56 11 -62 17 -5 5 -32 10 -58 10 -34 0 -50 5 -54 15 -5
11 -22 15 -65 15 -32 0 -59 4 -59 9 0 4 -27 11 -60 15 -33 4 -60 11 -60 16 0
6 -29 10 -65 10 -49 0 -67 4 -71 15 -5 11 -23 15 -79 15 -47 0 -75 4 -77 12
-2 6 -32 13 -69 16 -35 2 -68 8 -74 12 -5 4 -41 11 -80 15 -38 4 -76 12 -82
17 -9 7 -13 49 -13 145 0 106 -3 138 -15 149 -11 12 -15 41 -15 123 0 59 -4
111 -9 117 -5 5 -12 50 -16 99 -4 50 -11 94 -16 100 -11 11 -12 158 -2 169 4
3 12 4 19 2 7 -3 29 -8 48 -12z"/>
<path d="M9456 19455 c-4 -12 -25 -15 -95 -15 -49 0 -92 -4 -95 -9 -3 -5 -37
-12 -76 -16 -38 -4 -70 -11 -70 -16 0 -5 -20 -9 -44 -9 -26 0 -48 -6 -56 -15
-7 -8 -23 -15 -37 -15 -33 0 -53 -22 -53 -61 0 -50 20 -58 143 -59 83 0 112 3
123 15 10 9 34 15 64 15 33 0 50 5 54 15 4 12 24 15 90 15 47 0 88 5 91 10 4
6 162 10 441 10 283 0 434 -3 434 -10 0 -6 43 -10 110 -10 91 0 110 -3 110
-15 0 -12 15 -15 74 -15 46 0 84 -6 102 -15 18 -9 57 -15 102 -15 39 0 72 -4
72 -9 0 -5 32 -12 70 -16 39 -4 73 -11 76 -16 3 -5 31 -9 64 -9 42 0 59 -4 64
-15 4 -11 20 -15 55 -15 27 0 52 -4 55 -9 10 -15 62 -20 100 -10 35 10 36 11
36 59 0 38 -4 50 -15 50 -8 0 -15 7 -15 15 0 8 -5 15 -10 15 -6 0 -28 11 -50
25 -27 17 -54 25 -85 25 -33 0 -45 4 -45 15 0 12 -15 15 -76 15 -54 0 -80 4
-90 15 -11 11 -37 15 -89 15 -41 0 -76 4 -79 9 -3 5 -49 12 -101 16 -52 4 -95
11 -95 16 0 5 -56 9 -124 9 -98 0 -126 3 -136 15 -11 13 -79 15 -500 15 -424
0 -489 -2 -494 -15z"/>
<path d="M9102 18885 c-7 -8 -26 -15 -41 -15 -16 0 -31 -7 -35 -15 -3 -8 -12
-15 -21 -15 -8 0 -15 -4 -15 -10 0 -5 -9 -10 -19 -10 -11 0 -26 -7 -35 -15 -8
-8 -22 -15 -30 -15 -9 0 -16 -5 -16 -10 0 -6 -8 -14 -17 -17 -23 -9 -59 -51
-74 -85 -6 -16 -15 -28 -20 -28 -5 0 -9 -18 -9 -40 0 -27 -5 -43 -15 -46 -12
-5 -15 -29 -15 -129 0 -100 3 -124 15 -129 9 -3 15 -18 15 -37 0 -35 29 -109
42 -109 4 0 8 -9 8 -20 0 -11 7 -23 15 -26 8 -4 15 -12 15 -19 0 -7 7 -15 15
-19 8 -3 15 -11 15 -17 0 -15 42 -59 57 -59 7 0 16 -6 20 -12 10 -17 67 -48
86 -48 7 0 28 -7 46 -16 38 -19 162 -16 169 4 2 7 14 12 26 12 12 0 31 7 42
15 10 8 25 15 32 15 14 0 28 10 74 53 16 15 34 27 39 27 5 0 9 4 9 9 0 5 18
27 40 49 22 22 40 49 40 61 0 11 6 21 13 21 11 0 19 13 54 100 8 19 21 48 29
63 20 41 20 293 -1 333 -8 16 -15 37 -15 46 0 9 -5 20 -11 23 -5 4 -15 18 -20
32 -5 14 -18 27 -29 30 -11 3 -20 9 -20 14 0 5 -7 9 -15 9 -9 0 -18 7 -21 15
-4 9 -19 15 -40 15 -22 0 -37 6 -40 15 -9 22 -323 22 -342 0z m131 -277 c7 -7
21 -39 31 -70 l19 -57 -29 -60 c-18 -38 -35 -61 -45 -61 -9 0 -19 -7 -23 -15
-10 -27 -51 -16 -94 25 -33 32 -42 48 -42 75 0 19 5 37 10 40 6 3 10 13 10 22
0 17 62 83 78 83 5 0 15 7 22 15 15 18 47 20 63 3z"/>
<path d="M10476 18855 c-3 -8 -12 -15 -21 -15 -9 0 -28 -8 -43 -17 -32 -20
-102 -89 -102 -102 0 -4 -11 -19 -23 -32 -13 -13 -27 -36 -31 -51 -3 -16 -11
-28 -16 -28 -6 0 -10 -6 -10 -14 0 -7 -7 -27 -15 -42 -8 -16 -15 -43 -15 -61
0 -17 -4 -35 -10 -38 -6 -4 -10 -72 -10 -170 0 -98 4 -166 10 -170 6 -3 10
-15 10 -25 0 -10 7 -25 15 -34 8 -8 15 -21 15 -29 0 -8 7 -17 15 -21 8 -3 15
-12 15 -21 0 -8 4 -15 9 -15 5 0 23 -13 41 -30 18 -16 38 -30 46 -30 8 0 14
-4 14 -10 0 -5 7 -10 15 -10 9 0 18 -7 21 -15 4 -10 21 -15 53 -15 26 0 52 -5
59 -12 6 -6 32 -11 57 -11 25 0 51 5 57 11 7 7 42 12 84 12 55 0 73 4 78 15 4
11 22 15 70 15 36 0 68 5 71 10 3 6 14 10 23 10 19 1 92 64 92 80 0 6 6 10 13
10 6 0 21 18 31 40 11 22 23 40 28 40 4 0 8 8 8 19 0 10 7 24 15 31 8 7 15 23
15 37 0 13 7 26 15 29 11 4 15 21 15 58 0 28 7 69 15 91 19 52 19 90 0 109
-10 9 -15 34 -15 69 0 36 -5 59 -15 67 -8 7 -15 23 -15 36 0 15 -6 24 -15 24
-8 0 -15 5 -15 12 0 14 -90 98 -106 98 -6 0 -17 7 -24 15 -7 8 -23 15 -35 15
-13 0 -25 7 -29 15 -3 8 -14 15 -25 15 -11 0 -22 4 -25 9 -3 5 -26 12 -51 15
-25 4 -45 11 -45 17 0 5 -65 9 -154 9 -128 0 -155 -3 -160 -15z m225 -355 c10
-6 19 -19 19 -30 0 -10 5 -22 10 -25 6 -3 10 -19 10 -36 0 -16 -4 -29 -10 -29
-5 0 -10 -11 -10 -25 0 -14 -3 -25 -7 -25 -5 0 -17 -14 -28 -30 -11 -16 -26
-30 -32 -30 -7 0 -13 -4 -13 -10 0 -5 -17 -10 -38 -10 -28 0 -45 7 -61 24
l-22 24 25 50 c20 40 119 159 134 162 2 0 12 -5 23 -10z"/>
<path d="M9595 18021 c-3 -5 -19 -12 -35 -16 -17 -4 -30 -11 -30 -16 0 -5 -6
-9 -13 -9 -17 0 -67 -48 -67 -64 0 -8 -7 -19 -15 -26 -21 -18 -21 -216 0 -244
8 -11 15 -27 15 -36 0 -14 23 -60 75 -149 24 -40 100 -110 126 -116 16 -4 29
-11 29 -16 0 -5 47 -9 104 -9 l105 0 44 41 c25 22 51 54 57 70 7 16 16 29 21
29 5 0 9 11 9 25 0 14 7 28 15 31 12 5 15 32 15 154 0 119 -3 150 -15 160 -8
7 -15 19 -15 28 0 16 -74 92 -90 92 -5 0 -21 11 -35 24 -15 14 -44 27 -70 30
-25 4 -47 11 -50 17 -8 12 -172 12 -180 0z m213 -237 c18 -19 21 -119 3 -137
-6 -6 -11 -18 -11 -26 0 -9 -16 -33 -34 -53 -44 -48 -66 -43 -66 15 0 23 -7
48 -16 58 -15 17 -15 20 0 43 9 14 16 35 16 48 0 29 38 67 68 67 13 1 31 -6
40 -15z"/>
<path d="M8903 17210 c-13 -5 -23 -16 -23 -23 0 -8 -7 -20 -15 -27 -16 -13
-22 -120 -7 -120 5 0 14 -11 21 -24 7 -13 25 -30 40 -37 14 -8 39 -26 55 -41
16 -15 44 -34 62 -43 19 -9 34 -20 34 -25 0 -6 11 -10 25 -10 16 0 25 -6 25
-15 0 -9 9 -15 24 -15 13 0 29 -7 36 -15 7 -8 21 -15 31 -15 11 0 19 -4 19 -9
0 -5 16 -12 35 -15 19 -4 35 -11 35 -16 0 -6 16 -10 35 -10 22 0 38 -6 41 -15
4 -9 19 -15 38 -15 18 0 37 -5 43 -11 16 -16 121 -31 256 -36 91 -3 119 -8
124 -19 8 -20 119 -20 127 1 4 12 32 15 161 15 85 0 155 4 155 9 0 4 34 11 76
13 41 3 80 10 87 17 7 7 50 11 113 11 81 0 103 3 108 15 4 12 26 15 104 15 63
0 102 4 110 12 8 8 12 45 12 100 0 80 -2 89 -25 113 -16 15 -37 25 -54 25 -16
0 -31 7 -35 15 -4 10 -20 15 -54 15 -26 0 -54 6 -60 13 -9 8 -58 13 -150 15
-75 2 -141 8 -147 13 -5 5 -73 9 -152 9 -118 0 -145 3 -149 15 -5 12 -32 15
-159 15 -123 0 -155 3 -165 15 -10 12 -46 15 -206 15 -107 0 -194 4 -194 9 0
4 -36 12 -80 15 -44 4 -82 12 -85 17 -4 5 -32 9 -64 9 -40 0 -63 5 -71 15 -14
17 -100 20 -137 5z"/>
<path d="M8428 15646 c-32 -17 -38 -26 -38 -54 0 -20 -6 -35 -15 -38 -10 -4
-15 -20 -15 -49 0 -23 -7 -56 -15 -71 -8 -16 -15 -43 -15 -61 0 -17 -4 -35
-10 -38 -5 -3 -10 -33 -10 -66 0 -44 -4 -61 -15 -65 -11 -5 -15 -22 -15 -64 0
-39 -5 -62 -15 -70 -10 -8 -15 -31 -15 -71 0 -32 -4 -60 -9 -63 -5 -3 -12 -31
-16 -61 -3 -30 -11 -55 -16 -55 -5 0 -9 -26 -9 -59 0 -40 -5 -63 -15 -71 -10
-8 -15 -31 -15 -67 0 -30 -6 -64 -12 -76 -8 -13 -16 -87 -21 -187 -4 -91 -10
-218 -13 -283 -4 -90 -9 -119 -20 -124 -11 -4 -14 -26 -14 -94 0 -70 -3 -91
-15 -95 -13 -5 -15 -65 -15 -455 0 -390 2 -450 15 -455 11 -5 15 -21 15 -61 0
-35 5 -60 15 -69 8 -9 15 -20 15 -25 0 -5 -7 -9 -15 -9 -13 0 -15 -23 -15
-144 0 -119 3 -145 15 -150 11 -4 15 -20 15 -57 0 -52 3 -66 34 -165 9 -29 16
-68 16 -88 0 -20 4 -36 9 -36 5 0 12 -9 16 -19 4 -13 19 -22 45 -26 22 -4 40
-11 40 -16 0 -5 35 -9 79 -9 58 0 82 -4 91 -15 8 -10 31 -15 69 -15 31 0 62
-5 68 -11 6 -6 50 -14 97 -16 47 -3 86 -10 86 -14 0 -5 36 -9 79 -9 57 0 84
-4 95 -15 10 -11 37 -15 95 -15 57 0 84 -4 95 -15 11 -11 38 -15 109 -15 54 0
97 -4 99 -10 2 -5 51 -13 111 -16 59 -4 107 -11 107 -16 0 -4 43 -8 95 -8 76
0 97 -3 101 -15 4 -11 21 -15 59 -15 38 0 55 4 59 15 3 8 12 15 20 15 19 0 29
33 21 70 -9 41 -72 70 -152 70 -41 0 -67 5 -77 15 -10 11 -37 15 -95 15 -57 0
-84 4 -95 15 -11 12 -42 15 -138 15 -68 0 -128 4 -134 10 -5 5 -78 12 -162 16
-84 4 -155 11 -158 16 -3 4 -56 8 -118 8 -81 0 -122 4 -142 15 -16 8 -39 15
-52 15 -42 0 -62 18 -62 55 0 18 -4 37 -10 40 -5 3 -10 21 -10 38 0 18 -7 45
-15 61 -8 15 -15 40 -15 55 0 14 -7 39 -15 55 -8 15 -15 48 -15 72 0 23 -4 45
-9 48 -5 3 -12 33 -16 66 -4 33 -11 63 -16 66 -5 3 -9 26 -9 52 0 26 -7 60
-15 76 -9 17 -15 55 -15 96 0 50 -4 69 -14 73 -36 14 -34 713 2 725 9 3 12 43
12 157 0 114 3 154 13 157 8 3 14 43 19 124 10 167 30 334 40 334 4 0 8 35 8
78 1 48 6 86 15 102 8 14 14 48 15 76 0 28 7 68 15 87 8 20 15 55 15 77 0 22
5 40 10 40 6 0 10 25 10 55 0 40 4 57 15 61 10 4 15 20 15 51 0 26 6 51 15 59
8 9 15 28 15 44 0 16 4 31 9 34 5 3 12 22 15 41 4 19 11 35 16 35 6 0 10 11
10 25 0 24 21 65 47 93 13 14 79 17 87 3 3 -4 60 -12 126 -16 66 -4 122 -11
126 -16 3 -5 39 -9 80 -9 57 0 76 -4 80 -15 5 -11 24 -15 79 -15 41 0 76 -4
79 -9 3 -4 42 -12 86 -15 44 -4 82 -12 85 -17 4 -5 40 -9 81 -9 57 0 76 -4 80
-15 5 -12 26 -15 104 -15 70 0 100 -4 102 -12 3 -9 34 -14 94 -16 49 -2 93 -8
99 -13 5 -5 49 -9 97 -9 72 0 88 -3 88 -15 0 -12 15 -15 79 -15 58 0 82 -4 91
-15 8 -9 30 -15 56 -15 24 0 44 -4 44 -9 0 -5 18 -12 40 -16 22 -4 42 -11 46
-16 3 -5 15 -9 26 -9 22 0 108 -79 108 -99 0 -6 5 -11 10 -11 6 0 10 -11 10
-25 0 -14 7 -42 15 -62 20 -48 22 -712 3 -731 -10 -10 -14 -135 -16 -539 -2
-290 -7 -532 -12 -537 -4 -6 -12 -125 -16 -264 -4 -139 -11 -255 -15 -258 -5
-3 -9 -74 -9 -158 0 -118 -3 -156 -15 -172 -10 -13 -14 -45 -15 -102 0 -84 8
-113 41 -144 23 -22 87 -24 95 -3 4 8 12 15 19 15 16 0 25 22 25 60 0 16 5 32
10 35 6 4 10 126 10 334 0 280 2 330 15 341 13 11 15 70 15 421 0 224 4 410 8
413 5 3 12 186 15 408 4 247 11 406 17 412 13 13 14 656 1 656 -5 0 -13 30
-17 67 -7 70 -52 163 -78 163 -11 0 -25 9 -73 50 -7 5 -16 10 -21 10 -6 0 -23
7 -38 15 -16 8 -48 15 -71 15 -24 0 -43 5 -43 10 0 6 -33 10 -80 10 -62 0 -82
3 -86 15 -5 12 -24 15 -84 15 -52 0 -80 4 -82 12 -3 8 -33 14 -79 16 -41 2
-79 8 -84 12 -6 5 -45 12 -88 16 -43 4 -80 11 -83 15 -3 5 -38 9 -79 9 -53 0
-74 4 -78 14 -4 9 -28 16 -69 20 -132 11 -258 30 -258 38 0 4 -47 8 -105 8
-85 0 -107 3 -111 15 -5 12 -27 15 -113 15 -67 0 -121 6 -146 15 -29 10 -88
14 -212 15 -109 0 -173 4 -173 10 0 6 -30 10 -72 9 -55 -1 -82 -7 -110 -23z"/>
<path d="M9973 11873 c-19 -7 -18 -113 1 -113 8 0 16 -5 18 -12 5 -13 124 -28
291 -34 90 -4 119 -9 124 -20 4 -11 28 -14 114 -14 96 0 111 2 129 20 28 28
26 74 -5 104 -14 14 -25 30 -25 36 0 5 -17 10 -39 10 -22 0 -44 6 -51 15 -11
13 -54 15 -279 14 -146 0 -272 -3 -278 -6z"/>
<path d="M13128 15089 c-16 -21 -28 -46 -28 -54 0 -7 -4 -17 -10 -20 -5 -3
-10 -22 -10 -41 0 -22 -5 -34 -14 -34 -9 0 -16 -15 -19 -42 -2 -24 -13 -67
-25 -95 -11 -29 -23 -71 -27 -93 -4 -22 -11 -42 -16 -46 -5 -3 -9 -25 -9 -50
0 -27 -6 -52 -15 -60 -8 -9 -15 -25 -15 -37 0 -25 -17 -82 -36 -120 -8 -16
-14 -41 -14 -57 0 -15 -7 -33 -15 -40 -8 -7 -15 -28 -15 -47 0 -19 -7 -41 -15
-49 -8 -9 -15 -25 -15 -37 -1 -24 -33 -123 -44 -134 -3 -3 -6 -20 -6 -38 0
-17 -4 -35 -10 -41 -5 -5 -14 -30 -19 -54 -23 -106 -34 -146 -42 -155 -5 -5
-9 -24 -9 -41 0 -18 -7 -39 -15 -48 -8 -8 -15 -32 -15 -53 -1 -21 -7 -49 -15
-63 -8 -14 -14 -40 -15 -57 0 -18 -4 -33 -10 -33 -5 0 -10 -25 -10 -55 0 -42
-3 -55 -15 -55 -12 0 -15 -19 -15 -110 l0 -110 30 0 c25 0 30 4 30 25 0 14 7
28 15 31 8 4 15 17 15 30 0 13 4 24 9 24 5 0 20 29 33 65 12 36 26 65 30 65 5
0 8 13 8 29 0 17 4 32 9 36 5 3 12 19 16 36 4 17 13 42 21 57 8 15 14 35 14
44 0 9 5 20 10 23 6 3 10 22 10 41 0 24 5 34 15 34 9 0 15 9 15 24 0 13 7 37
15 52 8 16 15 37 15 46 0 9 5 20 10 23 6 3 10 16 10 29 0 12 7 31 15 42 8 10
15 33 15 50 0 18 6 34 13 37 6 2 18 26 25 53 7 27 19 62 27 77 8 16 15 42 15
58 0 17 6 32 15 35 9 4 15 19 15 36 0 16 7 36 15 44 8 9 15 29 15 45 0 16 5
29 10 29 6 0 10 18 10 39 0 25 5 41 15 45 11 4 15 20 15 55 0 33 5 51 14 54 9
4 16 27 19 69 5 69 22 153 37 180 6 10 10 29 10 42 0 14 6 31 14 38 7 8 15 27
18 43 6 32 25 88 39 117 15 30 10 67 -11 88 -15 15 -33 20 -72 20 -50 -1 -54
-3 -80 -41z"/>
<path d="M11213 11296 c-4 -8 -17 -15 -28 -18 -11 -2 -21 -10 -23 -19 -4 -22
36 -69 59 -69 10 0 19 -4 19 -10 0 -5 9 -10 20 -10 11 0 23 -7 26 -15 4 -8 16
-15 29 -15 12 0 28 -7 35 -15 7 -8 20 -15 30 -15 10 0 20 -7 24 -15 3 -8 14
-15 25 -15 11 0 23 -4 26 -10 3 -5 15 -10 26 -10 11 0 22 -7 25 -15 4 -8 16
-15 29 -15 12 0 28 -7 35 -15 7 -8 22 -15 33 -15 27 0 70 48 61 69 -3 9 -9 24
-11 34 -3 9 -10 17 -15 17 -5 0 -21 11 -36 25 -15 14 -33 25 -40 25 -7 0 -15
7 -18 15 -4 8 -16 15 -29 15 -12 0 -28 7 -35 15 -7 8 -21 15 -31 15 -11 0 -19
5 -19 10 0 6 -8 10 -19 10 -10 0 -24 7 -31 15 -7 8 -23 15 -37 15 -13 0 -26 7
-29 15 -8 20 -90 21 -101 1z"/>
</g>
</svg>
